<svg xmlns="http://www.w3.org/2000/svg" xmlns:xlink="http://www.w3.org/1999/xlink" version="1.1" width="664" height="867"><g><g model-id="a449f1d3-02be-456d-bd4a-0555d05dd4de" transform="translate(437,22)"><polygon fill="#000000" points="0,0 4.2,11.2 11.8,2" transform="translate(-5.9,27.3)"></polygon>
<rect fill="none" width="1" height="1" transform="translate(33.3,-0.5)"></rect>
<g><g>
<rect x="0" y="0" width="28.3" height="28.3" opacity="0"></rect>
<path fill="none" stroke="#000000" stroke-width="1" d="M28.3,0C16.7,2.2,7,13.4,0,28.3"></path>
</g></g><rect stroke="none" stroke-width="0" fill="#FFFFFF" x="0" y="0" width="0" height="0"></rect><path stroke="#000000" fill="none"></path><text font-family="OpenSansCondensedLight" font-size="14pt" fill="black" transform="translate(0,0)"></text><rect stroke-width="0" fill="none" width="1" height="1" transform="translate(33.3,-0.5)"></rect><text font-family="OpenSansCondensedLight" font-size="14pt" fill="black" text-decoration="none" transform="translate(33.3,-0.5)"><tspan x="0" y="6.8">200</tspan></text><path stroke="#000000" fill="none" transform="translate(33.3,-0.5)"></path></g><g model-id="2375767c-e183-4222-aea8-158d77511b00" transform="translate(134.8,27.4)"><g><g>
<rect y="0" fill="#FFFFFF" width="30.2" height="30.2" stroke="none" stroke-dasharray="none"></rect>
<rect x="2.1" y="2.3" fill="none" width="26" height="25.7"></rect>
<circle fill="none" cx="15.1" cy="0" r="0.1"></circle>
<circle fill="none" cx="23.5" cy="0" r="0.1"></circle>
<circle fill="none" cx="30.2" cy="7.3" r="0.1"></circle>
<circle fill="none" cx="30.2" cy="14.7" r="0.1"></circle>
<circle fill="none" cx="30.2" cy="23" r="0.1"></circle>
<circle fill="none" cx="23.5" cy="30.2" r="0.1"></circle>
<circle fill="none" cx="15.1" cy="30.2" r="0.1"></circle>
<circle fill="none" cx="7.6" cy="30.2" r="0.1"></circle>
<circle fill="none" cx="0" cy="23" r="0.1"></circle>
<circle fill="none" cx="0" cy="14.7" r="0.1"></circle>
<circle fill="none" cx="0" cy="7.3" r="0.1"></circle>
<circle fill="none" cx="7.7" cy="0" r="0.1"></circle>
</g></g><rect stroke="none" stroke-width="0" fill="#FFFFFF" x="0" y="0" width="0" height="0" transform="translate(30.1,14.6)"></rect><path stroke="#000000" fill="none" d=""></path><text font-family="OpenSansCondensedLight" font-size="14pt" fill="black" transform="translate(30.1,14.6)"></text><rect stroke-width="0" fill="none" width="26" height="25.7" transform="translate(2.1,2.3)"></rect><text font-family="OpenSansCondensedLight" font-size="14pt" fill="black" text-decoration="none" transform="translate(2.1,2.3)" text-anchor="middle"><tspan x="13" y="19.2">204</tspan></text><path stroke="#000000" fill="none" transform="translate(2.1,2.3)"></path></g><g model-id="4f9e6fa8-fa90-446d-80cb-c98c39783ebf"><path stroke="black" stroke-dasharray="none" d="M 165 50 C 204.5 50 204.5 106 244 106"></path><path fill="black" stroke="black" d="" transform="translate(165,50) scale(1,1) rotate(35.7)"></path><path fill="black" stroke="black" d="M 8 0 L 0 4 L 8 8 z" transform="translate(247.7,114.2) scale(1,1) rotate(-144.3)"></path><g><g label-idx="0" cursor="move" transform="translate(204.5, 78)"><rect fill="white" rx="3" ry="3" x="0" y="0" width="0" height="0"></rect><text text-anchor="middle" font-size="14pt" font-family="OpenSansCondensedLight" y="0.8em" display="none" xml:space="preserve" transform="translate(0,0)"></text></g></g></g><g model-id="08969c03-e3e7-49a0-8e45-f4618507b098" transform="translate(498,154)"><g><g>
<rect y="0" fill="#FFFFFF" width="30.2" height="30.2" stroke="none" stroke-dasharray="none"></rect>
<rect x="2.1" y="2.3" fill="none" width="26" height="25.7"></rect>
<circle fill="none" cx="15.1" cy="0" r="0.1"></circle>
<circle fill="none" cx="23.5" cy="0" r="0.1"></circle>
<circle fill="none" cx="30.2" cy="7.3" r="0.1"></circle>
<circle fill="none" cx="30.2" cy="14.7" r="0.1"></circle>
<circle fill="none" cx="30.2" cy="23" r="0.1"></circle>
<circle fill="none" cx="23.5" cy="30.2" r="0.1"></circle>
<circle fill="none" cx="15.1" cy="30.2" r="0.1"></circle>
<circle fill="none" cx="7.6" cy="30.2" r="0.1"></circle>
<circle fill="none" cx="0" cy="23" r="0.1"></circle>
<circle fill="none" cx="0" cy="14.7" r="0.1"></circle>
<circle fill="none" cx="0" cy="7.3" r="0.1"></circle>
<circle fill="none" cx="7.7" cy="0" r="0.1"></circle>
</g></g><rect stroke="none" stroke-width="0" fill="#FFFFFF" x="0" y="0" width="0" height="0" transform="translate(30.1,14.6)"></rect><path stroke="#000000" fill="none" d=""></path><text font-family="OpenSansCondensedLight" font-size="14pt" fill="black" transform="translate(30.1,14.6)"></text><rect stroke-width="0" fill="none" width="26" height="25.7" transform="translate(2.1,2.3)"></rect><text font-family="OpenSansCondensedLight" font-size="14pt" fill="black" text-decoration="none" transform="translate(2.1,2.3)" text-anchor="middle"><tspan x="13" y="19.2">206</tspan></text><path stroke="#000000" fill="none" transform="translate(2.1,2.3)"></path></g><g model-id="70a7f592-2144-4b32-9432-27c3abd1e8b1"><path stroke="black" stroke-dasharray="none" d="M 506 184 444 249"></path><path fill="black" stroke="black" d="" transform="translate(506,184) scale(1,1) rotate(-226.2)"></path><path fill="black" stroke="black" d="M 8 0 L 0 4 L 8 8 z" transform="translate(435.1,252.2) scale(1,1) rotate(-46.2)"></path><g><g label-idx="0" cursor="move" transform="translate(475, 216.5)"><rect fill="white" rx="3" ry="3" x="0" y="0" width="0" height="0"></rect><text text-anchor="middle" font-size="14pt" font-family="OpenSansCondensedLight" y="0.8em" display="none" xml:space="preserve" transform="translate(0,0)"></text></g></g></g><g model-id="664213d0-174f-060a-2963-caac1a5a117e" transform="translate(116,554)"><g><g>
<rect y="0" fill="#FFFFFF" width="30.2" height="30.2" stroke="none" stroke-dasharray="none"></rect>
<rect x="2.1" y="2.3" fill="none" width="26" height="25.7"></rect>
<circle fill="none" cx="15.1" cy="0" r="0.1"></circle>
<circle fill="none" cx="23.5" cy="0" r="0.1"></circle>
<circle fill="none" cx="30.2" cy="7.3" r="0.1"></circle>
<circle fill="none" cx="30.2" cy="14.7" r="0.1"></circle>
<circle fill="none" cx="30.2" cy="23" r="0.1"></circle>
<circle fill="none" cx="23.5" cy="30.2" r="0.1"></circle>
<circle fill="none" cx="15.1" cy="30.2" r="0.1"></circle>
<circle fill="none" cx="7.6" cy="30.2" r="0.1"></circle>
<circle fill="none" cx="0" cy="23" r="0.1"></circle>
<circle fill="none" cx="0" cy="14.7" r="0.1"></circle>
<circle fill="none" cx="0" cy="7.3" r="0.1"></circle>
<circle fill="none" cx="7.7" cy="0" r="0.1"></circle>
</g></g><rect stroke="none" stroke-width="0" fill="#FFFFFF" x="0" y="0" width="0" height="0" transform="translate(30.1,14.6)"></rect><path stroke="#000000" fill="none" d=""></path><text font-family="OpenSansCondensedLight" font-size="14pt" fill="black" transform="translate(30.1,14.6)"></text><rect stroke-width="0" fill="none" width="26" height="25.7" transform="translate(2.1,2.3)"></rect><text font-family="OpenSansCondensedLight" font-size="14pt" fill="black" text-decoration="none" transform="translate(2.1,2.3)" text-anchor="middle"><tspan x="13" y="19.2">206</tspan></text><path stroke="#000000" fill="none" transform="translate(2.1,2.3)"></path></g><g model-id="17b50785-0618-4539-9e11-a098eda41e2d"><path stroke="black" stroke-dasharray="none" d="M 498 177 448 196"></path><path fill="black" stroke="black" d="" transform="translate(498,177) scale(1,1) rotate(-201.1)"></path><path fill="black" stroke="black" d="M 8 0 L 0 4 L 8 8 z" transform="translate(439.6,195.3) scale(1,1) rotate(-21.1)"></path><g><g label-idx="0" cursor="move" transform="translate(473, 186.5)"><rect fill="white" rx="3" ry="3" x="0" y="0" width="0" height="0"></rect><text text-anchor="middle" font-size="14pt" font-family="OpenSansCondensedLight" y="0.8em" display="none" xml:space="preserve" transform="translate(0,0)"></text></g></g></g><g model-id="0da24644-1af9-4c27-bfae-a89dbd0649d6"><path stroke="black" stroke-dasharray="none" d="M 146 577 188 591"></path><path fill="black" stroke="black" d="" transform="translate(146,577) scale(1,1) rotate(18.8)"></path><path fill="black" stroke="black" d="M 8 0 L 0 4 L 8 8 z" transform="translate(194.7,597.8) scale(1,1) rotate(-161.2)"></path><g><g label-idx="0" cursor="move" transform="translate(167, 584)"><rect fill="white" rx="3" ry="3" x="0" y="0" width="0" height="0"></rect><text text-anchor="middle" font-size="14pt" font-family="OpenSansCondensedLight" y="0.8em" display="none" xml:space="preserve" transform="translate(0,0)"></text></g></g></g><g model-id="c4c04ffa-24a1-4faf-9bfd-8e4328b9711b" transform="translate(184.8,806)"><g><g>
<rect y="0" fill="#FFFFFF" width="30.2" height="30.2" stroke="none" stroke-dasharray="none"></rect>
<rect x="2.1" y="2.3" fill="none" width="26" height="25.7"></rect>
<circle fill="none" cx="15.1" cy="0" r="0.1"></circle>
<circle fill="none" cx="23.5" cy="0" r="0.1"></circle>
<circle fill="none" cx="30.2" cy="7.3" r="0.1"></circle>
<circle fill="none" cx="30.2" cy="14.7" r="0.1"></circle>
<circle fill="none" cx="30.2" cy="23" r="0.1"></circle>
<circle fill="none" cx="23.5" cy="30.2" r="0.1"></circle>
<circle fill="none" cx="15.1" cy="30.2" r="0.1"></circle>
<circle fill="none" cx="7.6" cy="30.2" r="0.1"></circle>
<circle fill="none" cx="0" cy="23" r="0.1"></circle>
<circle fill="none" cx="0" cy="14.7" r="0.1"></circle>
<circle fill="none" cx="0" cy="7.3" r="0.1"></circle>
<circle fill="none" cx="7.7" cy="0" r="0.1"></circle>
</g></g><rect stroke="none" stroke-width="0" fill="#FFFFFF" x="0" y="0" width="0" height="0" transform="translate(30.1,14.6)"></rect><path stroke="#000000" fill="none" d=""></path><text font-family="OpenSansCondensedLight" font-size="14pt" fill="black" transform="translate(30.1,14.6)"></text><rect stroke-width="0" fill="none" width="26" height="25.7" transform="translate(2.1,2.3)"></rect><text font-family="OpenSansCondensedLight" font-size="14pt" fill="black" text-decoration="none" transform="translate(2.1,2.3)" text-anchor="middle"><tspan x="13" y="19.2">202</tspan></text><path stroke="#000000" fill="none" transform="translate(2.1,2.3)"></path></g><g model-id="d5fd8d78-5fe2-4502-96c1-a8150246c35a"><path stroke="black" stroke-dasharray="none" d="M 215 813 252 778"></path><path fill="black" stroke="black" d="" transform="translate(215,813) scale(1,1) rotate(-43.6)"></path><path fill="black" stroke="black" d="M 8 0 L 0 4 L 8 8 z" transform="translate(260.8,774.9) scale(1,1) rotate(-223.6)"></path><g><g label-idx="0" cursor="move" transform="translate(233.5, 795.5)"><rect fill="white" rx="3" ry="3" x="0" y="0" width="0" height="0"></rect><text text-anchor="middle" font-size="14pt" font-family="OpenSansCondensedLight" y="0.8em" display="none" xml:space="preserve" transform="translate(0,0)"></text></g></g></g><g model-id="b46e0707-900f-4524-bc14-70906f2dbebf" transform="translate(254,103)"><g><g>
<path d="M59,0H0v54h59V0L59,0z" stroke="#000000" stroke-dasharray="none" fill="#FFFFFF"></path>
<rect x="2.6" y="2.5" width="53.8" height="49.1" fill="none"></rect>
<circle fill="none" cx="29.5" cy="0" r="0.1"></circle>
<circle fill="none" cx="44.1" cy="0" r="0.1"></circle>
<circle fill="none" cx="59" cy="13.6" r="0.1"></circle>
<circle fill="none" cx="59" cy="27" r="0.1"></circle>
<circle fill="none" cx="59" cy="40.4" r="0.1"></circle>
<circle fill="none" cx="44.1" cy="54" r="0.1"></circle>
<circle fill="none" cx="29.5" cy="54" r="0.1"></circle>
<circle fill="none" cx="14.9" cy="54" r="0.1"></circle>
<circle fill="none" cx="0" cy="40.4" r="0.1"></circle>
<circle fill="none" cx="0" cy="27" r="0.1"></circle>
<circle fill="none" cx="0" cy="13.6" r="0.1"></circle>
<circle fill="none" cx="14.9" cy="0" r="0.1"></circle>
</g></g><rect stroke="none" stroke-width="0" fill="#FFFFFF" x="0" y="0" width="0" height="0" transform="translate(58.9,26.9)"></rect><path stroke="#000000" fill="none" d=""></path><text font-family="OpenSansCondensedLight" font-size="14pt" fill="black" transform="translate(58.9,26.9)"></text><rect stroke-width="0" fill="none" width="53.8" height="49.1" transform="translate(2.6,2.5)"></rect><text font-family="OpenSansCondensedLight" font-size="14pt" fill="black" transform="translate(2.6,2.5)" text-anchor="middle"><tspan x="26.9" y="30.8">M</tspan></text><path stroke="#000000" fill="none" transform="translate(2.6,2.5)" d="M 0 0"></path></g><g model-id="116a03fd-aa2c-644e-a6c8-ab1d7d9d39c2" transform="translate(253,181)"><g><g>
<path d="M59,0H0v54h59V0L59,0z" stroke="#000000" stroke-dasharray="none" fill="#FFFFFF"></path>
<rect x="2.6" y="2.5" width="53.8" height="49.1" fill="none"></rect>
<circle fill="none" cx="29.5" cy="0" r="0.1"></circle>
<circle fill="none" cx="44.1" cy="0" r="0.1"></circle>
<circle fill="none" cx="59" cy="13.6" r="0.1"></circle>
<circle fill="none" cx="59" cy="27" r="0.1"></circle>
<circle fill="none" cx="59" cy="40.4" r="0.1"></circle>
<circle fill="none" cx="44.1" cy="54" r="0.1"></circle>
<circle fill="none" cx="29.5" cy="54" r="0.1"></circle>
<circle fill="none" cx="14.9" cy="54" r="0.1"></circle>
<circle fill="none" cx="0" cy="40.4" r="0.1"></circle>
<circle fill="none" cx="0" cy="27" r="0.1"></circle>
<circle fill="none" cx="0" cy="13.6" r="0.1"></circle>
<circle fill="none" cx="14.9" cy="0" r="0.1"></circle>
</g></g><rect stroke="none" stroke-width="0" fill="#FFFFFF" x="0" y="0" width="0" height="0" transform="translate(58.9,26.9)"></rect><path stroke="#000000" fill="none" d=""></path><text font-family="OpenSansCondensedLight" font-size="14pt" fill="black" transform="translate(58.9,26.9)"></text><rect stroke-width="0" fill="none" width="53.8" height="49.1" transform="translate(2.6,2.5)"></rect><text font-family="OpenSansCondensedLight" font-size="14pt" fill="black" transform="translate(2.6,2.5)" text-anchor="middle"><tspan x="26.9" y="30.8">M</tspan></text><path stroke="#000000" fill="none" transform="translate(2.6,2.5)" d="M 0 0"></path></g><g model-id="b24e2f70-b516-d9ad-1320-fe1712691a44" transform="translate(309,338)"><g><g>
<path d="M59,0H0v54h59V0L59,0z" stroke="#000000" stroke-dasharray="none" fill="#FFFFFF"></path>
<rect x="2.6" y="2.5" width="53.8" height="49.1" fill="none"></rect>
<circle fill="none" cx="29.5" cy="0" r="0.1"></circle>
<circle fill="none" cx="44.1" cy="0" r="0.1"></circle>
<circle fill="none" cx="59" cy="13.6" r="0.1"></circle>
<circle fill="none" cx="59" cy="27" r="0.1"></circle>
<circle fill="none" cx="59" cy="40.4" r="0.1"></circle>
<circle fill="none" cx="44.1" cy="54" r="0.1"></circle>
<circle fill="none" cx="29.5" cy="54" r="0.1"></circle>
<circle fill="none" cx="14.9" cy="54" r="0.1"></circle>
<circle fill="none" cx="0" cy="40.4" r="0.1"></circle>
<circle fill="none" cx="0" cy="27" r="0.1"></circle>
<circle fill="none" cx="0" cy="13.6" r="0.1"></circle>
<circle fill="none" cx="14.9" cy="0" r="0.1"></circle>
</g></g><rect stroke="none" stroke-width="0" fill="#FFFFFF" x="0" y="0" width="0" height="0" transform="translate(58.9,26.9)"></rect><path stroke="#000000" fill="none" d=""></path><text font-family="OpenSansCondensedLight" font-size="14pt" fill="black" transform="translate(58.9,26.9)"></text><rect stroke-width="0" fill="none" width="53.8" height="49.1" transform="translate(2.6,2.5)"></rect><text font-family="OpenSansCondensedLight" font-size="14pt" fill="black" transform="translate(2.6,2.5)" text-anchor="middle"><tspan x="26.9" y="30.8">M</tspan></text><path stroke="#000000" fill="none" transform="translate(2.6,2.5)" d="M 0 0"></path></g><g model-id="af285fc4-7c03-6666-3316-ecb8e1358254" transform="translate(308,416)"><g><g>
<path d="M59,0H0v54h59V0L59,0z" stroke="#000000" stroke-dasharray="none" fill="#FFFFFF"></path>
<rect x="2.6" y="2.5" width="53.8" height="49.1" fill="none"></rect>
<circle fill="none" cx="29.5" cy="0" r="0.1"></circle>
<circle fill="none" cx="44.1" cy="0" r="0.1"></circle>
<circle fill="none" cx="59" cy="13.6" r="0.1"></circle>
<circle fill="none" cx="59" cy="27" r="0.1"></circle>
<circle fill="none" cx="59" cy="40.4" r="0.1"></circle>
<circle fill="none" cx="44.1" cy="54" r="0.1"></circle>
<circle fill="none" cx="29.5" cy="54" r="0.1"></circle>
<circle fill="none" cx="14.9" cy="54" r="0.1"></circle>
<circle fill="none" cx="0" cy="40.4" r="0.1"></circle>
<circle fill="none" cx="0" cy="27" r="0.1"></circle>
<circle fill="none" cx="0" cy="13.6" r="0.1"></circle>
<circle fill="none" cx="14.9" cy="0" r="0.1"></circle>
</g></g><rect stroke="none" stroke-width="0" fill="#FFFFFF" x="0" y="0" width="0" height="0" transform="translate(58.9,26.9)"></rect><path stroke="#000000" fill="none" d=""></path><text font-family="OpenSansCondensedLight" font-size="14pt" fill="black" transform="translate(58.9,26.9)"></text><rect stroke-width="0" fill="none" width="53.8" height="49.1" transform="translate(2.6,2.5)"></rect><text font-family="OpenSansCondensedLight" font-size="14pt" fill="black" transform="translate(2.6,2.5)" text-anchor="middle"><tspan x="26.9" y="30.8">M</tspan></text><path stroke="#000000" fill="none" transform="translate(2.6,2.5)" d="M 0 0"></path></g><g model-id="7c2354f7-6ece-21ef-ca97-4ed92eac16cd" transform="translate(253,258)"><g><g>
<path d="M59,0H0v54h59V0L59,0z" stroke="#000000" stroke-dasharray="none" fill="#FFFFFF"></path>
<rect x="2.6" y="2.5" width="53.8" height="49.1" fill="none"></rect>
<circle fill="none" cx="29.5" cy="0" r="0.1"></circle>
<circle fill="none" cx="44.1" cy="0" r="0.1"></circle>
<circle fill="none" cx="59" cy="13.6" r="0.1"></circle>
<circle fill="none" cx="59" cy="27" r="0.1"></circle>
<circle fill="none" cx="59" cy="40.4" r="0.1"></circle>
<circle fill="none" cx="44.1" cy="54" r="0.1"></circle>
<circle fill="none" cx="29.5" cy="54" r="0.1"></circle>
<circle fill="none" cx="14.9" cy="54" r="0.1"></circle>
<circle fill="none" cx="0" cy="40.4" r="0.1"></circle>
<circle fill="none" cx="0" cy="27" r="0.1"></circle>
<circle fill="none" cx="0" cy="13.6" r="0.1"></circle>
<circle fill="none" cx="14.9" cy="0" r="0.1"></circle>
</g></g><rect stroke="none" stroke-width="0" fill="#FFFFFF" x="0" y="0" width="0" height="0" transform="translate(58.9,26.9)"></rect><path stroke="#000000" fill="none" d=""></path><text font-family="OpenSansCondensedLight" font-size="14pt" fill="black" transform="translate(58.9,26.9)"></text><rect stroke-width="0" fill="none" width="53.8" height="49.1" transform="translate(2.6,2.5)"></rect><text font-family="OpenSansCondensedLight" font-size="14pt" fill="black" transform="translate(2.6,2.5)" text-anchor="middle"><tspan x="26.9" y="30.8">M</tspan></text><path stroke="#000000" fill="none" transform="translate(2.6,2.5)" d="M 0 0"></path></g><g model-id="45d04473-98fd-6835-5d71-774a3724b7ff" transform="translate(308,493)"><g><g>
<path d="M59,0H0v54h59V0L59,0z" stroke="#000000" stroke-dasharray="none" fill="#FFFFFF"></path>
<rect x="2.6" y="2.5" width="53.8" height="49.1" fill="none"></rect>
<circle fill="none" cx="29.5" cy="0" r="0.1"></circle>
<circle fill="none" cx="44.1" cy="0" r="0.1"></circle>
<circle fill="none" cx="59" cy="13.6" r="0.1"></circle>
<circle fill="none" cx="59" cy="27" r="0.1"></circle>
<circle fill="none" cx="59" cy="40.4" r="0.1"></circle>
<circle fill="none" cx="44.1" cy="54" r="0.1"></circle>
<circle fill="none" cx="29.5" cy="54" r="0.1"></circle>
<circle fill="none" cx="14.9" cy="54" r="0.1"></circle>
<circle fill="none" cx="0" cy="40.4" r="0.1"></circle>
<circle fill="none" cx="0" cy="27" r="0.1"></circle>
<circle fill="none" cx="0" cy="13.6" r="0.1"></circle>
<circle fill="none" cx="14.9" cy="0" r="0.1"></circle>
</g></g><rect stroke="none" stroke-width="0" fill="#FFFFFF" x="0" y="0" width="0" height="0" transform="translate(58.9,26.9)"></rect><path stroke="#000000" fill="none" d=""></path><text font-family="OpenSansCondensedLight" font-size="14pt" fill="black" transform="translate(58.9,26.9)"></text><rect stroke-width="0" fill="none" width="53.8" height="49.1" transform="translate(2.6,2.5)"></rect><text font-family="OpenSansCondensedLight" font-size="14pt" fill="black" transform="translate(2.6,2.5)" text-anchor="middle"><tspan x="26.9" y="30.8">M</tspan></text><path stroke="#000000" fill="none" transform="translate(2.6,2.5)" d="M 0 0"></path></g><g model-id="7e3c5fdc-e04c-4f85-9084-02fe23f1b7fe"><path stroke="black" stroke-dasharray="none" d="M 282 165 282 181"></path><path fill="black" stroke="black" d="M 8 0 L 0 4 L 8 8 z" transform="translate(286,157) scale(1,1) rotate(-270)"></path><path fill="black" stroke="black" d="" transform="translate(282,181) scale(1,1) rotate(-90)"></path><g><g label-idx="0" cursor="move" transform="translate(282, 173)"><rect fill="white" rx="3" ry="3" x="0" y="0" width="0" height="0"></rect><text text-anchor="middle" font-size="14pt" font-family="OpenSansCondensedLight" y="0.8em" display="none" xml:space="preserve" transform="translate(0,0)"></text></g></g></g><g model-id="c86e5be4-31c9-1e05-3f1c-54c73625c428" transform="translate(309,565)"><g><g>
<path d="M59,0H0v54h59V0L59,0z" stroke="#000000" stroke-dasharray="none" fill="#FFFFFF"></path>
<rect x="2.6" y="2.5" width="53.8" height="49.1" fill="none"></rect>
<circle fill="none" cx="29.5" cy="0" r="0.1"></circle>
<circle fill="none" cx="44.1" cy="0" r="0.1"></circle>
<circle fill="none" cx="59" cy="13.6" r="0.1"></circle>
<circle fill="none" cx="59" cy="27" r="0.1"></circle>
<circle fill="none" cx="59" cy="40.4" r="0.1"></circle>
<circle fill="none" cx="44.1" cy="54" r="0.1"></circle>
<circle fill="none" cx="29.5" cy="54" r="0.1"></circle>
<circle fill="none" cx="14.9" cy="54" r="0.1"></circle>
<circle fill="none" cx="0" cy="40.4" r="0.1"></circle>
<circle fill="none" cx="0" cy="27" r="0.1"></circle>
<circle fill="none" cx="0" cy="13.6" r="0.1"></circle>
<circle fill="none" cx="14.9" cy="0" r="0.1"></circle>
</g></g><rect stroke="none" stroke-width="0" fill="#FFFFFF" x="0" y="0" width="0" height="0" transform="translate(58.9,26.9)"></rect><path stroke="#000000" fill="none" d=""></path><text font-family="OpenSansCondensedLight" font-size="14pt" fill="black" transform="translate(58.9,26.9)"></text><rect stroke-width="0" fill="none" width="53.8" height="49.1" transform="translate(2.6,2.5)"></rect><text font-family="OpenSansCondensedLight" font-size="14pt" fill="black" transform="translate(2.6,2.5)" text-anchor="middle"><tspan x="26.9" y="30.8">M</tspan></text><path stroke="#000000" fill="none" transform="translate(2.6,2.5)" d="M 0 0"></path></g><g model-id="ca83e399-1095-7e31-d50d-582b6d2f0735"><path stroke="black" stroke-dasharray="none" d="M 337 400 337 416"></path><path fill="black" stroke="black" d="M 8 0 L 0 4 L 8 8 z" transform="translate(341,392) scale(1,1) rotate(-270)"></path><path fill="black" stroke="black" d="" transform="translate(337,416) scale(1,1) rotate(-90)"></path><g><g label-idx="0" cursor="move" transform="translate(337, 408)"><rect fill="white" rx="3" ry="3" x="0" y="0" width="0" height="0"></rect><text text-anchor="middle" font-size="14pt" font-family="OpenSansCondensedLight" y="0.8em" display="none" xml:space="preserve" transform="translate(0,0)"></text></g></g></g><g model-id="92e41a14-e701-62a4-6161-36c4658685a8" transform="translate(197,566)"><g><g>
<path d="M59,0H0v54h59V0L59,0z" stroke="#000000" stroke-dasharray="none" fill="#FFFFFF"></path>
<rect x="2.6" y="2.5" width="53.8" height="49.1" fill="none"></rect>
<circle fill="none" cx="29.5" cy="0" r="0.1"></circle>
<circle fill="none" cx="44.1" cy="0" r="0.1"></circle>
<circle fill="none" cx="59" cy="13.6" r="0.1"></circle>
<circle fill="none" cx="59" cy="27" r="0.1"></circle>
<circle fill="none" cx="59" cy="40.4" r="0.1"></circle>
<circle fill="none" cx="44.1" cy="54" r="0.1"></circle>
<circle fill="none" cx="29.5" cy="54" r="0.1"></circle>
<circle fill="none" cx="14.9" cy="54" r="0.1"></circle>
<circle fill="none" cx="0" cy="40.4" r="0.1"></circle>
<circle fill="none" cx="0" cy="27" r="0.1"></circle>
<circle fill="none" cx="0" cy="13.6" r="0.1"></circle>
<circle fill="none" cx="14.9" cy="0" r="0.1"></circle>
</g></g><rect stroke="none" stroke-width="0" fill="#FFFFFF" x="0" y="0" width="0" height="0" transform="translate(58.9,26.9)"></rect><path stroke="#000000" fill="none" d=""></path><text font-family="OpenSansCondensedLight" font-size="14pt" fill="black" transform="translate(58.9,26.9)"></text><rect stroke-width="0" fill="none" width="53.8" height="49.1" transform="translate(2.6,2.5)"></rect><text font-family="OpenSansCondensedLight" font-size="14pt" fill="black" transform="translate(2.6,2.5)" text-anchor="middle"><tspan x="26.9" y="30.8">O</tspan></text><path stroke="#000000" fill="none" transform="translate(2.6,2.5)" d="M 0 0"></path></g><g model-id="e9d902e9-6a48-0e16-6722-11ff735ecfdf" transform="translate(252,719)"><g><g>
<path d="M59,0H0v54h59V0L59,0z" stroke="#000000" stroke-dasharray="none" fill="#FFFFFF"></path>
<rect x="2.6" y="2.5" width="53.8" height="49.1" fill="none"></rect>
<circle fill="none" cx="29.5" cy="0" r="0.1"></circle>
<circle fill="none" cx="44.1" cy="0" r="0.1"></circle>
<circle fill="none" cx="59" cy="13.6" r="0.1"></circle>
<circle fill="none" cx="59" cy="27" r="0.1"></circle>
<circle fill="none" cx="59" cy="40.4" r="0.1"></circle>
<circle fill="none" cx="44.1" cy="54" r="0.1"></circle>
<circle fill="none" cx="29.5" cy="54" r="0.1"></circle>
<circle fill="none" cx="14.9" cy="54" r="0.1"></circle>
<circle fill="none" cx="0" cy="40.4" r="0.1"></circle>
<circle fill="none" cx="0" cy="27" r="0.1"></circle>
<circle fill="none" cx="0" cy="13.6" r="0.1"></circle>
<circle fill="none" cx="14.9" cy="0" r="0.1"></circle>
</g></g><rect stroke="none" stroke-width="0" fill="#FFFFFF" x="0" y="0" width="0" height="0" transform="translate(58.9,26.9)"></rect><path stroke="#000000" fill="none" d=""></path><text font-family="OpenSansCondensedLight" font-size="14pt" fill="black" transform="translate(58.9,26.9)"></text><rect stroke-width="0" fill="none" width="53.8" height="49.1" transform="translate(2.6,2.5)"></rect><text font-family="OpenSansCondensedLight" font-size="14pt" fill="black" transform="translate(2.6,2.5)" text-anchor="middle"><tspan x="26.9" y="30.8">S</tspan></text><path stroke="#000000" fill="none" transform="translate(2.6,2.5)" d="M 0 0"></path></g><g model-id="2fc1ab16-ba54-4581-9788-d436a049aee6"><path stroke="black" stroke-dasharray="none" d="M 282 258 282 243"></path><path fill="black" stroke="black" d="" transform="translate(282,258) scale(1,1) rotate(-90)"></path><path fill="black" stroke="black" d="M 8 0 L 0 4 L 8 8 z" transform="translate(286,235) scale(1,1) rotate(-270)"></path><g><g label-idx="0" cursor="move" transform="translate(282, 250.5)"><rect fill="white" rx="3" ry="3" x="0" y="0" width="0" height="0"></rect><text text-anchor="middle" font-size="14pt" font-family="OpenSansCondensedLight" y="0.8em" display="none" xml:space="preserve" transform="translate(0,0)"></text></g></g></g><g model-id="bbdd3889-d6e3-d6ab-c1ff-a4792d85d233" transform="translate(251,644)"><g><g>
<path d="M59,0H0v54h59V0L59,0z" stroke="#000000" stroke-dasharray="none" fill="#FFFFFF"></path>
<rect x="2.6" y="2.5" width="53.8" height="49.1" fill="none"></rect>
<circle fill="none" cx="29.5" cy="0" r="0.1"></circle>
<circle fill="none" cx="44.1" cy="0" r="0.1"></circle>
<circle fill="none" cx="59" cy="13.6" r="0.1"></circle>
<circle fill="none" cx="59" cy="27" r="0.1"></circle>
<circle fill="none" cx="59" cy="40.4" r="0.1"></circle>
<circle fill="none" cx="44.1" cy="54" r="0.1"></circle>
<circle fill="none" cx="29.5" cy="54" r="0.1"></circle>
<circle fill="none" cx="14.9" cy="54" r="0.1"></circle>
<circle fill="none" cx="0" cy="40.4" r="0.1"></circle>
<circle fill="none" cx="0" cy="27" r="0.1"></circle>
<circle fill="none" cx="0" cy="13.6" r="0.1"></circle>
<circle fill="none" cx="14.9" cy="0" r="0.1"></circle>
</g></g><rect stroke="none" stroke-width="0" fill="#FFFFFF" x="0" y="0" width="0" height="0" transform="translate(58.9,26.9)"></rect><path stroke="#000000" fill="none" d=""></path><text font-family="OpenSansCondensedLight" font-size="14pt" fill="black" transform="translate(58.9,26.9)"></text><rect stroke-width="0" fill="none" width="53.8" height="49.1" transform="translate(2.6,2.5)"></rect><text font-family="OpenSansCondensedLight" font-size="14pt" fill="black" transform="translate(2.6,2.5)" text-anchor="middle"><tspan x="26.9" y="30.8">M</tspan></text><path stroke="#000000" fill="none" transform="translate(2.6,2.5)" d="M 0 0"></path></g><g model-id="9f930107-e548-8a26-1a8a-3cb5ccc7329c"><path stroke="black" stroke-dasharray="none" d="M 337 493 337 478"></path><path fill="black" stroke="black" d="" transform="translate(337,493) scale(1,1) rotate(-90)"></path><path fill="black" stroke="black" d="M 8 0 L 0 4 L 8 8 z" transform="translate(341,470) scale(1,1) rotate(-270)"></path><g><g label-idx="0" cursor="move" transform="translate(337, 485.5)"><rect fill="white" rx="3" ry="3" x="0" y="0" width="0" height="0"></rect><text text-anchor="middle" font-size="14pt" font-family="OpenSansCondensedLight" y="0.8em" display="none" xml:space="preserve" transform="translate(0,0)"></text></g></g></g><g model-id="716ef2ec-1fd8-79ac-0547-1ffaed1d7d44" transform="translate(395,413)"><g><g>
<path d="M59,0H0v54h59V0L59,0z" stroke="#000000" stroke-dasharray="none" fill="#FFFFFF"></path>
<rect x="2.6" y="2.5" width="53.8" height="49.1" fill="none"></rect>
<circle fill="none" cx="29.5" cy="0" r="0.1"></circle>
<circle fill="none" cx="44.1" cy="0" r="0.1"></circle>
<circle fill="none" cx="59" cy="13.6" r="0.1"></circle>
<circle fill="none" cx="59" cy="27" r="0.1"></circle>
<circle fill="none" cx="59" cy="40.4" r="0.1"></circle>
<circle fill="none" cx="44.1" cy="54" r="0.1"></circle>
<circle fill="none" cx="29.5" cy="54" r="0.1"></circle>
<circle fill="none" cx="14.9" cy="54" r="0.1"></circle>
<circle fill="none" cx="0" cy="40.4" r="0.1"></circle>
<circle fill="none" cx="0" cy="27" r="0.1"></circle>
<circle fill="none" cx="0" cy="13.6" r="0.1"></circle>
<circle fill="none" cx="14.9" cy="0" r="0.1"></circle>
</g></g><rect stroke="none" stroke-width="0" fill="#FFFFFF" x="0" y="0" width="0" height="0" transform="translate(58.9,26.9)"></rect><path stroke="#000000" fill="none" d=""></path><text font-family="OpenSansCondensedLight" font-size="14pt" fill="black" transform="translate(58.9,26.9)"></text><rect stroke-width="0" fill="none" width="53.8" height="49.1" transform="translate(2.6,2.5)"></rect><text font-family="OpenSansCondensedLight" font-size="14pt" fill="black" transform="translate(2.6,2.5)" text-anchor="middle"><tspan x="26.9" y="30.8">O</tspan></text><path stroke="#000000" fill="none" transform="translate(2.6,2.5)" d="M 0 0"></path></g><g model-id="6ccab249-7fce-46fa-b450-bc4b7f9d35c7"><path stroke="black" stroke-dasharray="none" d="M 324 338 303 318"></path><path fill="black" stroke="black" d="" transform="translate(324,338) scale(1,1) rotate(-136.1)"></path><path fill="black" stroke="black" d="M 8 0 L 0 4 L 8 8 z" transform="translate(299.8,309.1) scale(1,1) rotate(43.9)"></path><g><g label-idx="0" cursor="move" transform="translate(313.5, 328)"><rect fill="white" rx="3" ry="3" x="0" y="0" width="0" height="0"></rect><text text-anchor="middle" font-size="14pt" font-family="OpenSansCondensedLight" y="0.8em" display="none" xml:space="preserve" transform="translate(0,0)"></text></g></g></g><g model-id="1415da12-478a-c72c-2bc1-84f933785e3f" transform="translate(393,334)"><g><g>
<path d="M59,0H0v54h59V0L59,0z" stroke="#000000" stroke-dasharray="none" fill="#FFFFFF"></path>
<rect x="2.6" y="2.5" width="53.8" height="49.1" fill="none"></rect>
<circle fill="none" cx="29.5" cy="0" r="0.1"></circle>
<circle fill="none" cx="44.1" cy="0" r="0.1"></circle>
<circle fill="none" cx="59" cy="13.6" r="0.1"></circle>
<circle fill="none" cx="59" cy="27" r="0.1"></circle>
<circle fill="none" cx="59" cy="40.4" r="0.1"></circle>
<circle fill="none" cx="44.1" cy="54" r="0.1"></circle>
<circle fill="none" cx="29.5" cy="54" r="0.1"></circle>
<circle fill="none" cx="14.9" cy="54" r="0.1"></circle>
<circle fill="none" cx="0" cy="40.4" r="0.1"></circle>
<circle fill="none" cx="0" cy="27" r="0.1"></circle>
<circle fill="none" cx="0" cy="13.6" r="0.1"></circle>
<circle fill="none" cx="14.9" cy="0" r="0.1"></circle>
</g></g><rect stroke="none" stroke-width="0" fill="#FFFFFF" x="0" y="0" width="0" height="0" transform="translate(58.9,26.9)"></rect><path stroke="#000000" fill="none" d=""></path><text font-family="OpenSansCondensedLight" font-size="14pt" fill="black" transform="translate(58.9,26.9)"></text><rect stroke-width="0" fill="none" width="53.8" height="49.1" transform="translate(2.6,2.5)"></rect><text font-family="OpenSansCondensedLight" font-size="14pt" fill="black" transform="translate(2.6,2.5)" text-anchor="middle"><tspan x="26.9" y="30.8">O</tspan></text><path stroke="#000000" fill="none" transform="translate(2.6,2.5)" d="M 0 0"></path></g><g model-id="46268acf-7b66-89ef-764d-be947cd84a49" transform="translate(366,259)"><g><g>
<path d="M59,0H0v54h59V0L59,0z" stroke="#000000" stroke-dasharray="none" fill="#FFFFFF"></path>
<rect x="2.6" y="2.5" width="53.8" height="49.1" fill="none"></rect>
<circle fill="none" cx="29.5" cy="0" r="0.1"></circle>
<circle fill="none" cx="44.1" cy="0" r="0.1"></circle>
<circle fill="none" cx="59" cy="13.6" r="0.1"></circle>
<circle fill="none" cx="59" cy="27" r="0.1"></circle>
<circle fill="none" cx="59" cy="40.4" r="0.1"></circle>
<circle fill="none" cx="44.1" cy="54" r="0.1"></circle>
<circle fill="none" cx="29.5" cy="54" r="0.1"></circle>
<circle fill="none" cx="14.9" cy="54" r="0.1"></circle>
<circle fill="none" cx="0" cy="40.4" r="0.1"></circle>
<circle fill="none" cx="0" cy="27" r="0.1"></circle>
<circle fill="none" cx="0" cy="13.6" r="0.1"></circle>
<circle fill="none" cx="14.9" cy="0" r="0.1"></circle>
</g></g><rect stroke="none" stroke-width="0" fill="#FFFFFF" x="0" y="0" width="0" height="0" transform="translate(58.9,26.9)"></rect><path stroke="#000000" fill="none" d=""></path><text font-family="OpenSansCondensedLight" font-size="14pt" fill="black" transform="translate(58.9,26.9)"></text><rect stroke-width="0" fill="none" width="53.8" height="49.1" transform="translate(2.6,2.5)"></rect><text font-family="OpenSansCondensedLight" font-size="14pt" fill="black" transform="translate(2.6,2.5)" text-anchor="middle"><tspan x="26.9" y="30.8">O</tspan></text><path stroke="#000000" fill="none" transform="translate(2.6,2.5)" d="M 0 0"></path></g><g model-id="b32781b2-25ea-5748-357b-418200223b73" transform="translate(367,183)"><g><g>
<path d="M59,0H0v54h59V0L59,0z" stroke="#000000" stroke-dasharray="none" fill="#FFFFFF"></path>
<rect x="2.6" y="2.5" width="53.8" height="49.1" fill="none"></rect>
<circle fill="none" cx="29.5" cy="0" r="0.1"></circle>
<circle fill="none" cx="44.1" cy="0" r="0.1"></circle>
<circle fill="none" cx="59" cy="13.6" r="0.1"></circle>
<circle fill="none" cx="59" cy="27" r="0.1"></circle>
<circle fill="none" cx="59" cy="40.4" r="0.1"></circle>
<circle fill="none" cx="44.1" cy="54" r="0.1"></circle>
<circle fill="none" cx="29.5" cy="54" r="0.1"></circle>
<circle fill="none" cx="14.9" cy="54" r="0.1"></circle>
<circle fill="none" cx="0" cy="40.4" r="0.1"></circle>
<circle fill="none" cx="0" cy="27" r="0.1"></circle>
<circle fill="none" cx="0" cy="13.6" r="0.1"></circle>
<circle fill="none" cx="14.9" cy="0" r="0.1"></circle>
</g></g><rect stroke="none" stroke-width="0" fill="#FFFFFF" x="0" y="0" width="0" height="0" transform="translate(58.9,26.9)"></rect><path stroke="#000000" fill="none" d=""></path><text font-family="OpenSansCondensedLight" font-size="14pt" fill="black" transform="translate(58.9,26.9)"></text><rect stroke-width="0" fill="none" width="53.8" height="49.1" transform="translate(2.6,2.5)"></rect><text font-family="OpenSansCondensedLight" font-size="14pt" fill="black" transform="translate(2.6,2.5)" text-anchor="middle"><tspan x="26.9" y="30.8">O</tspan></text><path stroke="#000000" fill="none" transform="translate(2.6,2.5)" d="M 0 0"></path></g><g model-id="39ff7440-547e-4088-a632-ccd523e13a59"><path stroke="black" stroke-dasharray="none" d="M 337 565 337 555"></path><path fill="black" stroke="black" d="" transform="translate(337,565) scale(1,1) rotate(-90)"></path><path fill="black" stroke="black" d="M 8 0 L 0 4 L 8 8 z" transform="translate(341,547) scale(1,1) rotate(-270)"></path><g><g label-idx="0" cursor="move" transform="translate(337, 560)"><rect fill="white" rx="3" ry="3" x="0" y="0" width="0" height="0"></rect><text text-anchor="middle" font-size="14pt" font-family="OpenSansCondensedLight" y="0.8em" display="none" xml:space="preserve" transform="translate(0,0)"></text></g></g></g><g model-id="125289df-b3a0-41bf-94d4-3c17ad26d526"><path stroke="black" stroke-dasharray="none" d="M 295 644 318 624"></path><path fill="black" stroke="black" d="" transform="translate(295,644) scale(1,1) rotate(-40.8)"></path><path fill="black" stroke="black" d="M 8 0 L 0 4 L 8 8 z" transform="translate(326.6,622) scale(1,1) rotate(-220.8)"></path><g><g label-idx="0" cursor="move" transform="translate(306.5, 634)"><rect fill="white" rx="3" ry="3" x="0" y="0" width="0" height="0"></rect><text text-anchor="middle" font-size="14pt" font-family="OpenSansCondensedLight" y="0.8em" display="none" xml:space="preserve" transform="translate(0,0)"></text></g></g></g><g model-id="3dab6722-1e27-461b-819e-da3ed6bb6bba"><path stroke="black" stroke-dasharray="none" d="M 280 719 280 706"></path><path fill="black" stroke="black" d="" transform="translate(280,719) scale(1,1) rotate(-90)"></path><path fill="black" stroke="black" d="M 8 0 L 0 4 L 8 8 z" transform="translate(284,698) scale(1,1) rotate(-270)"></path><g><g label-idx="0" cursor="move" transform="translate(280, 712.5)"><rect fill="white" rx="3" ry="3" x="0" y="0" width="0" height="0"></rect><text text-anchor="middle" font-size="14pt" font-family="OpenSansCondensedLight" y="0.8em" display="none" xml:space="preserve" transform="translate(0,0)"></text></g></g></g><g model-id="ca5cb8eb-c5a0-4edd-9bdc-7b7838d65ec8"><path stroke="black" stroke-dasharray="none" d="M 367 440 387 440"></path><path fill="black" stroke="black" d="" transform="translate(367,440) scale(1,1) rotate(0)"></path><path fill="black" stroke="black" d="M 8 0 L 0 4 L 8 8 z" transform="translate(395,444) scale(1,1) rotate(-180)"></path><g><g label-idx="0" cursor="move" transform="translate(377, 440)"><rect fill="white" rx="3" ry="3" x="0" y="0" width="0" height="0"></rect><text text-anchor="middle" font-size="14pt" font-family="OpenSansCondensedLight" y="0.8em" display="none" xml:space="preserve" transform="translate(0,0)"></text></g></g></g><g model-id="0364a6f4-cc1f-44dd-96e3-69d1fa84fb9c"><path stroke="black" stroke-dasharray="none" d="M 266 644 247 626"></path><path fill="black" stroke="black" d="" transform="translate(266,644) scale(1,1) rotate(-136.2)"></path><path fill="black" stroke="black" d="M 8 0 L 0 4 L 8 8 z" transform="translate(243.8,617.1) scale(1,1) rotate(43.8)"></path><g><g label-idx="0" cursor="move" transform="translate(256.5, 635)"><rect fill="white" rx="3" ry="3" x="0" y="0" width="0" height="0"></rect><text text-anchor="middle" font-size="14pt" font-family="OpenSansCondensedLight" y="0.8em" display="none" xml:space="preserve" transform="translate(0,0)"></text></g></g></g><g model-id="507d105b-ccd2-40fd-a871-bfb41980ba3d"><path stroke="black" stroke-dasharray="none" d="M 422 413 422 396"></path><path fill="black" stroke="black" d="" transform="translate(422,413) scale(1,1) rotate(-90)"></path><path fill="black" stroke="black" d="M 8 0 L 0 4 L 8 8 z" transform="translate(426,388) scale(1,1) rotate(-270)"></path><g><g label-idx="0" cursor="move" transform="translate(422, 404.5)"><rect fill="white" rx="3" ry="3" x="0" y="0" width="0" height="0"></rect><text text-anchor="middle" font-size="14pt" font-family="OpenSansCondensedLight" y="0.8em" display="none" xml:space="preserve" transform="translate(0,0)"></text></g></g></g><g model-id="eebfe691-0e68-4b59-b40b-348bccb52443"><path stroke="black" stroke-dasharray="none" d="M 353 338 375 318"></path><path fill="black" stroke="black" d="" transform="translate(353,338) scale(1,1) rotate(-41.8)"></path><path fill="black" stroke="black" d="M 8 0 L 0 4 L 8 8 z" transform="translate(383.7,316) scale(1,1) rotate(-221.8)"></path><g><g label-idx="0" cursor="move" transform="translate(364, 328)"><rect fill="white" rx="3" ry="3" x="0" y="0" width="0" height="0"></rect><text text-anchor="middle" font-size="14pt" font-family="OpenSansCondensedLight" y="0.8em" display="none" xml:space="preserve" transform="translate(0,0)"></text></g></g></g><g model-id="81f0a391-befe-4fec-99c2-236fa9d7a513"><path stroke="black" stroke-dasharray="none" d="M 396 259 396 245"></path><path fill="black" stroke="black" d="" transform="translate(396,259) scale(1,1) rotate(-90)"></path><path fill="black" stroke="black" d="M 8 0 L 0 4 L 8 8 z" transform="translate(400,237) scale(1,1) rotate(-270)"></path><g><g label-idx="0" cursor="move" transform="translate(396, 252)"><rect fill="white" rx="3" ry="3" x="0" y="0" width="0" height="0"></rect><text text-anchor="middle" font-size="14pt" font-family="OpenSansCondensedLight" y="0.8em" display="none" xml:space="preserve" transform="translate(0,0)"></text></g></g></g></g><defs></defs></svg>