<svg xmlns="http://www.w3.org/2000/svg" xmlns:xlink="http://www.w3.org/1999/xlink" version="1.1" width="664" height="867"><g><g transform="translate(437,22)"><polygon fill="#000000" points="0,0 4.2,11.2 11.8,2" transform="translate(-5.9,27.3)"/>
<rect fill="none" width="1" height="1" transform="translate(33.3,-0.5)"/>
<g><g>
<rect x="0" y="0" width="28.3" height="28.3" opacity="0"/>
<path fill="none" stroke="#000000" stroke-width="1" d="M28.3,0C16.7,2.2,7,13.4,0,28.3"/>
</g></g><rect stroke="none" stroke-width="0" fill="#FFFFFF" x="0" y="0" width="0" height="0"/><path stroke="#000000" fill="none"/><text font-family="OpenSansCondensedLight" font-size="14pt" fill="black" transform="translate(0,0)"/><rect stroke-width="0" fill="none" width="1" height="1" transform="translate(33.3,-0.5)"/><text font-family="OpenSansCondensedLight" font-size="14pt" fill="black" text-decoration="none" transform="translate(33.3,-0.5)"><tspan x="0" y="6.8">200</tspan></text><path stroke="#000000" fill="none" transform="translate(33.3,-0.5)"/></g><g transform="translate(134.8,27.4)"><g><g>
<rect y="0" fill="#FFFFFF" width="30.2" height="30.2" stroke="none" stroke-dasharray="none"/>
<rect x="2.1" y="2.3" fill="none" width="26" height="25.7"/>
<circle fill="none" cx="15.1" cy="0" r="0.1"/>
<circle fill="none" cx="23.5" cy="0" r="0.1"/>
<circle fill="none" cx="30.2" cy="7.3" r="0.1"/>
<circle fill="none" cx="30.2" cy="14.7" r="0.1"/>
<circle fill="none" cx="30.2" cy="23" r="0.1"/>
<circle fill="none" cx="23.5" cy="30.2" r="0.1"/>
<circle fill="none" cx="15.1" cy="30.2" r="0.1"/>
<circle fill="none" cx="7.6" cy="30.2" r="0.1"/>
<circle fill="none" cx="0" cy="23" r="0.1"/>
<circle fill="none" cx="0" cy="14.7" r="0.1"/>
<circle fill="none" cx="0" cy="7.3" r="0.1"/>
<circle fill="none" cx="7.7" cy="0" r="0.1"/>
</g></g><rect stroke="none" stroke-width="0" fill="#FFFFFF" x="0" y="0" width="0" height="0" transform="translate(30.1,14.6)"/><path stroke="#000000" fill="none" d=""/><text font-family="OpenSansCondensedLight" font-size="14pt" fill="black" transform="translate(30.1,14.6)"/><rect stroke-width="0" fill="none" width="26" height="25.7" transform="translate(2.1,2.3)"/><text font-family="OpenSansCondensedLight" font-size="14pt" fill="black" text-decoration="none" transform="translate(2.1,2.3)" text-anchor="middle"><tspan x="13" y="19.2">204</tspan></text><path stroke="#000000" fill="none" transform="translate(2.1,2.3)"/></g><g><path stroke="black" stroke-dasharray="none" d="M 165 50 C 204.5 50 204.5 106 244 106" fill="none"/><path fill="black" stroke="black" d="" transform="translate(165,50) scale(1,1) rotate(35.7)"/><path fill="black" stroke="black" d="M 8 0 L 0 4 L 8 8 z" transform="translate(247.7,114.2) scale(1,1) rotate(-144.3)"/><g><g label-idx="0" cursor="move" transform="translate(204.5, 78)"><rect fill="white" rx="3" ry="3" x="0" y="0" width="0" height="0"/><text text-anchor="middle" font-size="14pt" font-family="OpenSansCondensedLight" y="0.8em" display="none" xml:space="preserve" transform="translate(0,0)"/></g></g></g><g transform="translate(498,154)"><g><g>
<rect y="0" fill="#FFFFFF" width="30.2" height="30.2" stroke="none" stroke-dasharray="none"/>
<rect x="2.1" y="2.3" fill="none" width="26" height="25.7"/>
<circle fill="none" cx="15.1" cy="0" r="0.1"/>
<circle fill="none" cx="23.5" cy="0" r="0.1"/>
<circle fill="none" cx="30.2" cy="7.3" r="0.1"/>
<circle fill="none" cx="30.2" cy="14.7" r="0.1"/>
<circle fill="none" cx="30.2" cy="23" r="0.1"/>
<circle fill="none" cx="23.5" cy="30.2" r="0.1"/>
<circle fill="none" cx="15.1" cy="30.2" r="0.1"/>
<circle fill="none" cx="7.6" cy="30.2" r="0.1"/>
<circle fill="none" cx="0" cy="23" r="0.1"/>
<circle fill="none" cx="0" cy="14.7" r="0.1"/>
<circle fill="none" cx="0" cy="7.3" r="0.1"/>
<circle fill="none" cx="7.7" cy="0" r="0.1"/>
</g></g><rect stroke="none" stroke-width="0" fill="#FFFFFF" x="0" y="0" width="0" height="0" transform="translate(30.1,14.6)"/><path stroke="#000000" fill="none" d=""/><text font-family="OpenSansCondensedLight" font-size="14pt" fill="black" transform="translate(30.1,14.6)"/><rect stroke-width="0" fill="none" width="26" height="25.7" transform="translate(2.1,2.3)"/><text font-family="OpenSansCondensedLight" font-size="14pt" fill="black" text-decoration="none" transform="translate(2.1,2.3)" text-anchor="middle"><tspan x="13" y="19.2">206</tspan></text><path stroke="#000000" fill="none" transform="translate(2.1,2.3)"/></g><g><path stroke="black" stroke-dasharray="none" d="M 506 184 444 249" fill="none"/><path fill="black" stroke="black" d="" transform="translate(506,184) scale(1,1) rotate(-226.2)"/><path fill="black" stroke="black" d="M 8 0 L 0 4 L 8 8 z" transform="translate(435.1,252.2) scale(1,1) rotate(-46.2)"/><g><g label-idx="0" cursor="move" transform="translate(475, 216.5)"><rect fill="white" rx="3" ry="3" x="0" y="0" width="0" height="0"/><text text-anchor="middle" font-size="14pt" font-family="OpenSansCondensedLight" y="0.8em" display="none" xml:space="preserve" transform="translate(0,0)"/></g></g></g><g transform="translate(116,554)"><g><g>
<rect y="0" fill="#FFFFFF" width="30.2" height="30.2" stroke="none" stroke-dasharray="none"/>
<rect x="2.1" y="2.3" fill="none" width="26" height="25.7"/>
<circle fill="none" cx="15.1" cy="0" r="0.1"/>
<circle fill="none" cx="23.5" cy="0" r="0.1"/>
<circle fill="none" cx="30.2" cy="7.3" r="0.1"/>
<circle fill="none" cx="30.2" cy="14.7" r="0.1"/>
<circle fill="none" cx="30.2" cy="23" r="0.1"/>
<circle fill="none" cx="23.5" cy="30.2" r="0.1"/>
<circle fill="none" cx="15.1" cy="30.2" r="0.1"/>
<circle fill="none" cx="7.6" cy="30.2" r="0.1"/>
<circle fill="none" cx="0" cy="23" r="0.1"/>
<circle fill="none" cx="0" cy="14.7" r="0.1"/>
<circle fill="none" cx="0" cy="7.3" r="0.1"/>
<circle fill="none" cx="7.7" cy="0" r="0.1"/>
</g></g><rect stroke="none" stroke-width="0" fill="#FFFFFF" x="0" y="0" width="0" height="0" transform="translate(30.1,14.6)"/><path stroke="#000000" fill="none" d=""/><text font-family="OpenSansCondensedLight" font-size="14pt" fill="black" transform="translate(30.1,14.6)"/><rect stroke-width="0" fill="none" width="26" height="25.7" transform="translate(2.1,2.3)"/><text font-family="OpenSansCondensedLight" font-size="14pt" fill="black" text-decoration="none" transform="translate(2.1,2.3)" text-anchor="middle"><tspan x="13" y="19.2">206</tspan></text><path stroke="#000000" fill="none" transform="translate(2.1,2.3)"/></g><g><path stroke="black" stroke-dasharray="none" d="M 498 177 448 196" fill="none"/><path fill="black" stroke="black" d="" transform="translate(498,177) scale(1,1) rotate(-201.1)"/><path fill="black" stroke="black" d="M 8 0 L 0 4 L 8 8 z" transform="translate(439.6,195.3) scale(1,1) rotate(-21.1)"/><g><g label-idx="0" cursor="move" transform="translate(473, 186.5)"><rect fill="white" rx="3" ry="3" x="0" y="0" width="0" height="0"/><text text-anchor="middle" font-size="14pt" font-family="OpenSansCondensedLight" y="0.8em" display="none" xml:space="preserve" transform="translate(0,0)"/></g></g></g><g><path stroke="black" stroke-dasharray="none" d="M 146 577 188 591" fill="none"/><path fill="black" stroke="black" d="" transform="translate(146,577) scale(1,1) rotate(18.8)"/><path fill="black" stroke="black" d="M 8 0 L 0 4 L 8 8 z" transform="translate(194.7,597.8) scale(1,1) rotate(-161.2)"/><g><g label-idx="0" cursor="move" transform="translate(167, 584)"><rect fill="white" rx="3" ry="3" x="0" y="0" width="0" height="0"/><text text-anchor="middle" font-size="14pt" font-family="OpenSansCondensedLight" y="0.8em" display="none" xml:space="preserve" transform="translate(0,0)"/></g></g></g><g transform="translate(184.8,806)"><g><g>
<rect y="0" fill="#FFFFFF" width="30.2" height="30.2" stroke="none" stroke-dasharray="none"/>
<rect x="2.1" y="2.3" fill="none" width="26" height="25.7"/>
<circle fill="none" cx="15.1" cy="0" r="0.1"/>
<circle fill="none" cx="23.5" cy="0" r="0.1"/>
<circle fill="none" cx="30.2" cy="7.3" r="0.1"/>
<circle fill="none" cx="30.2" cy="14.7" r="0.1"/>
<circle fill="none" cx="30.2" cy="23" r="0.1"/>
<circle fill="none" cx="23.5" cy="30.2" r="0.1"/>
<circle fill="none" cx="15.1" cy="30.2" r="0.1"/>
<circle fill="none" cx="7.6" cy="30.2" r="0.1"/>
<circle fill="none" cx="0" cy="23" r="0.1"/>
<circle fill="none" cx="0" cy="14.7" r="0.1"/>
<circle fill="none" cx="0" cy="7.3" r="0.1"/>
<circle fill="none" cx="7.7" cy="0" r="0.1"/>
</g></g><rect stroke="none" stroke-width="0" fill="#FFFFFF" x="0" y="0" width="0" height="0" transform="translate(30.1,14.6)"/><path stroke="#000000" fill="none" d=""/><text font-family="OpenSansCondensedLight" font-size="14pt" fill="black" transform="translate(30.1,14.6)"/><rect stroke-width="0" fill="none" width="26" height="25.7" transform="translate(2.1,2.3)"/><text font-family="OpenSansCondensedLight" font-size="14pt" fill="black" text-decoration="none" transform="translate(2.1,2.3)" text-anchor="middle"><tspan x="13" y="19.2">202</tspan></text><path stroke="#000000" fill="none" transform="translate(2.1,2.3)"/></g><g><path stroke="black" stroke-dasharray="none" d="M 215 813 252 778" fill="none"/><path fill="black" stroke="black" d="" transform="translate(215,813) scale(1,1) rotate(-43.6)"/><path fill="black" stroke="black" d="M 8 0 L 0 4 L 8 8 z" transform="translate(260.8,774.9) scale(1,1) rotate(-223.6)"/><g><g label-idx="0" cursor="move" transform="translate(233.5, 795.5)"><rect fill="white" rx="3" ry="3" x="0" y="0" width="0" height="0"/><text text-anchor="middle" font-size="14pt" font-family="OpenSansCondensedLight" y="0.8em" display="none" xml:space="preserve" transform="translate(0,0)"/></g></g></g><g transform="translate(254,103)"><g><g>
<path d="M59,0H0v54h59V0L59,0z" stroke="#000000" stroke-dasharray="none" fill="#FFFFFF"/>
<rect x="2.6" y="2.5" width="53.8" height="49.1" fill="none"/>
<circle fill="none" cx="29.5" cy="0" r="0.1"/>
<circle fill="none" cx="44.1" cy="0" r="0.1"/>
<circle fill="none" cx="59" cy="13.6" r="0.1"/>
<circle fill="none" cx="59" cy="27" r="0.1"/>
<circle fill="none" cx="59" cy="40.4" r="0.1"/>
<circle fill="none" cx="44.1" cy="54" r="0.1"/>
<circle fill="none" cx="29.5" cy="54" r="0.1"/>
<circle fill="none" cx="14.9" cy="54" r="0.1"/>
<circle fill="none" cx="0" cy="40.4" r="0.1"/>
<circle fill="none" cx="0" cy="27" r="0.1"/>
<circle fill="none" cx="0" cy="13.6" r="0.1"/>
<circle fill="none" cx="14.9" cy="0" r="0.1"/>
</g></g><rect stroke="none" stroke-width="0" fill="#FFFFFF" x="0" y="0" width="0" height="0" transform="translate(58.9,26.9)"/><path stroke="#000000" fill="none" d=""/><text font-family="OpenSansCondensedLight" font-size="14pt" fill="black" transform="translate(58.9,26.9)"/><rect stroke-width="0" fill="none" width="53.8" height="49.1" transform="translate(2.6,2.5)"/><text font-family="OpenSansCondensedLight" font-size="14pt" fill="black" transform="translate(2.6,2.5)" text-anchor="middle"><tspan x="26.9" y="30.8">M</tspan></text><path stroke="#000000" fill="none" transform="translate(2.6,2.5)" d="M 0 0"/></g><g transform="translate(253,181)"><g><g>
<path d="M59,0H0v54h59V0L59,0z" stroke="#000000" stroke-dasharray="none" fill="#FFFFFF"/>
<rect x="2.6" y="2.5" width="53.8" height="49.1" fill="none"/>
<circle fill="none" cx="29.5" cy="0" r="0.1"/>
<circle fill="none" cx="44.1" cy="0" r="0.1"/>
<circle fill="none" cx="59" cy="13.6" r="0.1"/>
<circle fill="none" cx="59" cy="27" r="0.1"/>
<circle fill="none" cx="59" cy="40.4" r="0.1"/>
<circle fill="none" cx="44.1" cy="54" r="0.1"/>
<circle fill="none" cx="29.5" cy="54" r="0.1"/>
<circle fill="none" cx="14.9" cy="54" r="0.1"/>
<circle fill="none" cx="0" cy="40.4" r="0.1"/>
<circle fill="none" cx="0" cy="27" r="0.1"/>
<circle fill="none" cx="0" cy="13.6" r="0.1"/>
<circle fill="none" cx="14.9" cy="0" r="0.1"/>
</g></g><rect stroke="none" stroke-width="0" fill="#FFFFFF" x="0" y="0" width="0" height="0" transform="translate(58.9,26.9)"/><path stroke="#000000" fill="none" d=""/><text font-family="OpenSansCondensedLight" font-size="14pt" fill="black" transform="translate(58.9,26.9)"/><rect stroke-width="0" fill="none" width="53.8" height="49.1" transform="translate(2.6,2.5)"/><text font-family="OpenSansCondensedLight" font-size="14pt" fill="black" transform="translate(2.6,2.5)" text-anchor="middle"><tspan x="26.9" y="30.8">M</tspan></text><path stroke="#000000" fill="none" transform="translate(2.6,2.5)" d="M 0 0"/></g><g transform="translate(309,338)"><g><g>
<path d="M59,0H0v54h59V0L59,0z" stroke="#000000" stroke-dasharray="none" fill="#FFFFFF"/>
<rect x="2.6" y="2.5" width="53.8" height="49.1" fill="none"/>
<circle fill="none" cx="29.5" cy="0" r="0.1"/>
<circle fill="none" cx="44.1" cy="0" r="0.1"/>
<circle fill="none" cx="59" cy="13.6" r="0.1"/>
<circle fill="none" cx="59" cy="27" r="0.1"/>
<circle fill="none" cx="59" cy="40.4" r="0.1"/>
<circle fill="none" cx="44.1" cy="54" r="0.1"/>
<circle fill="none" cx="29.5" cy="54" r="0.1"/>
<circle fill="none" cx="14.9" cy="54" r="0.1"/>
<circle fill="none" cx="0" cy="40.4" r="0.1"/>
<circle fill="none" cx="0" cy="27" r="0.1"/>
<circle fill="none" cx="0" cy="13.6" r="0.1"/>
<circle fill="none" cx="14.9" cy="0" r="0.1"/>
</g></g><rect stroke="none" stroke-width="0" fill="#FFFFFF" x="0" y="0" width="0" height="0" transform="translate(58.9,26.9)"/><path stroke="#000000" fill="none" d=""/><text font-family="OpenSansCondensedLight" font-size="14pt" fill="black" transform="translate(58.9,26.9)"/><rect stroke-width="0" fill="none" width="53.8" height="49.1" transform="translate(2.6,2.5)"/><text font-family="OpenSansCondensedLight" font-size="14pt" fill="black" transform="translate(2.6,2.5)" text-anchor="middle"><tspan x="26.9" y="30.8">M</tspan></text><path stroke="#000000" fill="none" transform="translate(2.6,2.5)" d="M 0 0"/></g><g transform="translate(253,258)"><g><g>
<path d="M59,0H0v54h59V0L59,0z" stroke="#000000" stroke-dasharray="none" fill="#FFFFFF"/>
<rect x="2.6" y="2.5" width="53.8" height="49.1" fill="none"/>
<circle fill="none" cx="29.5" cy="0" r="0.1"/>
<circle fill="none" cx="44.1" cy="0" r="0.1"/>
<circle fill="none" cx="59" cy="13.6" r="0.1"/>
<circle fill="none" cx="59" cy="27" r="0.1"/>
<circle fill="none" cx="59" cy="40.4" r="0.1"/>
<circle fill="none" cx="44.1" cy="54" r="0.1"/>
<circle fill="none" cx="29.5" cy="54" r="0.1"/>
<circle fill="none" cx="14.9" cy="54" r="0.1"/>
<circle fill="none" cx="0" cy="40.4" r="0.1"/>
<circle fill="none" cx="0" cy="27" r="0.1"/>
<circle fill="none" cx="0" cy="13.6" r="0.1"/>
<circle fill="none" cx="14.9" cy="0" r="0.1"/>
</g></g><rect stroke="none" stroke-width="0" fill="#FFFFFF" x="0" y="0" width="0" height="0" transform="translate(58.9,26.9)"/><path stroke="#000000" fill="none" d=""/><text font-family="OpenSansCondensedLight" font-size="14pt" fill="black" transform="translate(58.9,26.9)"/><rect stroke-width="0" fill="none" width="53.8" height="49.1" transform="translate(2.6,2.5)"/><text font-family="OpenSansCondensedLight" font-size="14pt" fill="black" transform="translate(2.6,2.5)" text-anchor="middle"><tspan x="26.9" y="30.8">M</tspan></text><path stroke="#000000" fill="none" transform="translate(2.6,2.5)" d="M 0 0"/></g><g transform="translate(308,416)"><g><g>
<path d="M59,0H0v54h59V0L59,0z" stroke="#000000" stroke-dasharray="none" fill="#FFFFFF"/>
<rect x="2.6" y="2.5" width="53.8" height="49.1" fill="none"/>
<circle fill="none" cx="29.5" cy="0" r="0.1"/>
<circle fill="none" cx="44.1" cy="0" r="0.1"/>
<circle fill="none" cx="59" cy="13.6" r="0.1"/>
<circle fill="none" cx="59" cy="27" r="0.1"/>
<circle fill="none" cx="59" cy="40.4" r="0.1"/>
<circle fill="none" cx="44.1" cy="54" r="0.1"/>
<circle fill="none" cx="29.5" cy="54" r="0.1"/>
<circle fill="none" cx="14.9" cy="54" r="0.1"/>
<circle fill="none" cx="0" cy="40.4" r="0.1"/>
<circle fill="none" cx="0" cy="27" r="0.1"/>
<circle fill="none" cx="0" cy="13.6" r="0.1"/>
<circle fill="none" cx="14.9" cy="0" r="0.1"/>
</g></g><rect stroke="none" stroke-width="0" fill="#FFFFFF" x="0" y="0" width="0" height="0" transform="translate(58.9,26.9)"/><path stroke="#000000" fill="none" d=""/><text font-family="OpenSansCondensedLight" font-size="14pt" fill="black" transform="translate(58.9,26.9)"/><rect stroke-width="0" fill="none" width="53.8" height="49.1" transform="translate(2.6,2.5)"/><text font-family="OpenSansCondensedLight" font-size="14pt" fill="black" transform="translate(2.6,2.5)" text-anchor="middle"><tspan x="26.9" y="30.8">M</tspan></text><path stroke="#000000" fill="none" transform="translate(2.6,2.5)" d="M 0 0"/></g><g><path stroke="black" stroke-dasharray="none" d="M 282 165 282 181" fill="none"/><path fill="black" stroke="black" d="M 8 0 L 0 4 L 8 8 z" transform="translate(286,157) scale(1,1) rotate(-270)"/><path fill="black" stroke="black" d="" transform="translate(282,181) scale(1,1) rotate(-90)"/><g><g label-idx="0" cursor="move" transform="translate(282, 173)"><rect fill="white" rx="3" ry="3" x="0" y="0" width="0" height="0"/><text text-anchor="middle" font-size="14pt" font-family="OpenSansCondensedLight" y="0.8em" display="none" xml:space="preserve" transform="translate(0,0)"/></g></g></g><g transform="translate(308,493)"><g><g>
<path d="M59,0H0v54h59V0L59,0z" stroke="#000000" stroke-dasharray="none" fill="#FFFFFF"/>
<rect x="2.6" y="2.5" width="53.8" height="49.1" fill="none"/>
<circle fill="none" cx="29.5" cy="0" r="0.1"/>
<circle fill="none" cx="44.1" cy="0" r="0.1"/>
<circle fill="none" cx="59" cy="13.6" r="0.1"/>
<circle fill="none" cx="59" cy="27" r="0.1"/>
<circle fill="none" cx="59" cy="40.4" r="0.1"/>
<circle fill="none" cx="44.1" cy="54" r="0.1"/>
<circle fill="none" cx="29.5" cy="54" r="0.1"/>
<circle fill="none" cx="14.9" cy="54" r="0.1"/>
<circle fill="none" cx="0" cy="40.4" r="0.1"/>
<circle fill="none" cx="0" cy="27" r="0.1"/>
<circle fill="none" cx="0" cy="13.6" r="0.1"/>
<circle fill="none" cx="14.9" cy="0" r="0.1"/>
</g></g><rect stroke="none" stroke-width="0" fill="#FFFFFF" x="0" y="0" width="0" height="0" transform="translate(58.9,26.9)"/><path stroke="#000000" fill="none" d=""/><text font-family="OpenSansCondensedLight" font-size="14pt" fill="black" transform="translate(58.9,26.9)"/><rect stroke-width="0" fill="none" width="53.8" height="49.1" transform="translate(2.6,2.5)"/><text font-family="OpenSansCondensedLight" font-size="14pt" fill="black" transform="translate(2.6,2.5)" text-anchor="middle"><tspan x="26.9" y="30.8">M</tspan></text><path stroke="#000000" fill="none" transform="translate(2.6,2.5)" d="M 0 0"/></g><g><path stroke="black" stroke-dasharray="none" d="M 337 400 337 416" fill="none"/><path fill="black" stroke="black" d="M 8 0 L 0 4 L 8 8 z" transform="translate(341,392) scale(1,1) rotate(-270)"/><path fill="black" stroke="black" d="" transform="translate(337,416) scale(1,1) rotate(-90)"/><g><g label-idx="0" cursor="move" transform="translate(337, 408)"><rect fill="white" rx="3" ry="3" x="0" y="0" width="0" height="0"/><text text-anchor="middle" font-size="14pt" font-family="OpenSansCondensedLight" y="0.8em" display="none" xml:space="preserve" transform="translate(0,0)"/></g></g></g><g><path stroke="black" stroke-dasharray="none" d="M 282 258 282 243" fill="none"/><path fill="black" stroke="black" d="" transform="translate(282,258) scale(1,1) rotate(-90)"/><path fill="black" stroke="black" d="M 8 0 L 0 4 L 8 8 z" transform="translate(286,235) scale(1,1) rotate(-270)"/><g><g label-idx="0" cursor="move" transform="translate(282, 250.5)"><rect fill="white" rx="3" ry="3" x="0" y="0" width="0" height="0"/><text text-anchor="middle" font-size="14pt" font-family="OpenSansCondensedLight" y="0.8em" display="none" xml:space="preserve" transform="translate(0,0)"/></g></g></g><g transform="translate(309,565)"><g><g>
<path d="M59,0H0v54h59V0L59,0z" stroke="#000000" stroke-dasharray="none" fill="#FFFFFF"/>
<rect x="2.6" y="2.5" width="53.8" height="49.1" fill="none"/>
<circle fill="none" cx="29.5" cy="0" r="0.1"/>
<circle fill="none" cx="44.1" cy="0" r="0.1"/>
<circle fill="none" cx="59" cy="13.6" r="0.1"/>
<circle fill="none" cx="59" cy="27" r="0.1"/>
<circle fill="none" cx="59" cy="40.4" r="0.1"/>
<circle fill="none" cx="44.1" cy="54" r="0.1"/>
<circle fill="none" cx="29.5" cy="54" r="0.1"/>
<circle fill="none" cx="14.9" cy="54" r="0.1"/>
<circle fill="none" cx="0" cy="40.4" r="0.1"/>
<circle fill="none" cx="0" cy="27" r="0.1"/>
<circle fill="none" cx="0" cy="13.6" r="0.1"/>
<circle fill="none" cx="14.9" cy="0" r="0.1"/>
</g></g><rect stroke="none" stroke-width="0" fill="#FFFFFF" x="0" y="0" width="0" height="0" transform="translate(58.9,26.9)"/><path stroke="#000000" fill="none" d=""/><text font-family="OpenSansCondensedLight" font-size="14pt" fill="black" transform="translate(58.9,26.9)"/><rect stroke-width="0" fill="none" width="53.8" height="49.1" transform="translate(2.6,2.5)"/><text font-family="OpenSansCondensedLight" font-size="14pt" fill="black" transform="translate(2.6,2.5)" text-anchor="middle"><tspan x="26.9" y="30.8">M</tspan></text><path stroke="#000000" fill="none" transform="translate(2.6,2.5)" d="M 0 0"/></g><g transform="translate(251,644)"><g><g>
<path d="M59,0H0v54h59V0L59,0z" stroke="#000000" stroke-dasharray="none" fill="#FFFFFF"/>
<rect x="2.6" y="2.5" width="53.8" height="49.1" fill="none"/>
<circle fill="none" cx="29.5" cy="0" r="0.1"/>
<circle fill="none" cx="44.1" cy="0" r="0.1"/>
<circle fill="none" cx="59" cy="13.6" r="0.1"/>
<circle fill="none" cx="59" cy="27" r="0.1"/>
<circle fill="none" cx="59" cy="40.4" r="0.1"/>
<circle fill="none" cx="44.1" cy="54" r="0.1"/>
<circle fill="none" cx="29.5" cy="54" r="0.1"/>
<circle fill="none" cx="14.9" cy="54" r="0.1"/>
<circle fill="none" cx="0" cy="40.4" r="0.1"/>
<circle fill="none" cx="0" cy="27" r="0.1"/>
<circle fill="none" cx="0" cy="13.6" r="0.1"/>
<circle fill="none" cx="14.9" cy="0" r="0.1"/>
</g></g><rect stroke="none" stroke-width="0" fill="#FFFFFF" x="0" y="0" width="0" height="0" transform="translate(58.9,26.9)"/><path stroke="#000000" fill="none" d=""/><text font-family="OpenSansCondensedLight" font-size="14pt" fill="black" transform="translate(58.9,26.9)"/><rect stroke-width="0" fill="none" width="53.8" height="49.1" transform="translate(2.6,2.5)"/><text font-family="OpenSansCondensedLight" font-size="14pt" fill="black" transform="translate(2.6,2.5)" text-anchor="middle"><tspan x="26.9" y="30.8">M</tspan></text><path stroke="#000000" fill="none" transform="translate(2.6,2.5)" d="M 0 0"/></g><g transform="translate(252,719)"><g><g>
<path d="M59,0H0v54h59V0L59,0z" stroke="#000000" stroke-dasharray="none" fill="#FFFFFF"/>
<rect x="2.6" y="2.5" width="53.8" height="49.1" fill="none"/>
<circle fill="none" cx="29.5" cy="0" r="0.1"/>
<circle fill="none" cx="44.1" cy="0" r="0.1"/>
<circle fill="none" cx="59" cy="13.6" r="0.1"/>
<circle fill="none" cx="59" cy="27" r="0.1"/>
<circle fill="none" cx="59" cy="40.4" r="0.1"/>
<circle fill="none" cx="44.1" cy="54" r="0.1"/>
<circle fill="none" cx="29.5" cy="54" r="0.1"/>
<circle fill="none" cx="14.9" cy="54" r="0.1"/>
<circle fill="none" cx="0" cy="40.4" r="0.1"/>
<circle fill="none" cx="0" cy="27" r="0.1"/>
<circle fill="none" cx="0" cy="13.6" r="0.1"/>
<circle fill="none" cx="14.9" cy="0" r="0.1"/>
</g></g><rect stroke="none" stroke-width="0" fill="#FFFFFF" x="0" y="0" width="0" height="0" transform="translate(58.9,26.9)"/><path stroke="#000000" fill="none" d=""/><text font-family="OpenSansCondensedLight" font-size="14pt" fill="black" transform="translate(58.9,26.9)"/><rect stroke-width="0" fill="none" width="53.8" height="49.1" transform="translate(2.6,2.5)"/><text font-family="OpenSansCondensedLight" font-size="14pt" fill="black" transform="translate(2.6,2.5)" text-anchor="middle"><tspan x="26.9" y="30.8">S</tspan></text><path stroke="#000000" fill="none" transform="translate(2.6,2.5)" d="M 0 0"/></g><g transform="translate(197,566)"><g><g>
<path d="M59,0H0v54h59V0L59,0z" stroke="#000000" stroke-dasharray="none" fill="#FFFFFF"/>
<rect x="2.6" y="2.5" width="53.8" height="49.1" fill="none"/>
<circle fill="none" cx="29.5" cy="0" r="0.1"/>
<circle fill="none" cx="44.1" cy="0" r="0.1"/>
<circle fill="none" cx="59" cy="13.6" r="0.1"/>
<circle fill="none" cx="59" cy="27" r="0.1"/>
<circle fill="none" cx="59" cy="40.4" r="0.1"/>
<circle fill="none" cx="44.1" cy="54" r="0.1"/>
<circle fill="none" cx="29.5" cy="54" r="0.1"/>
<circle fill="none" cx="14.9" cy="54" r="0.1"/>
<circle fill="none" cx="0" cy="40.4" r="0.1"/>
<circle fill="none" cx="0" cy="27" r="0.1"/>
<circle fill="none" cx="0" cy="13.6" r="0.1"/>
<circle fill="none" cx="14.9" cy="0" r="0.1"/>
</g></g><rect stroke="none" stroke-width="0" fill="#FFFFFF" x="0" y="0" width="0" height="0" transform="translate(58.9,26.9)"/><path stroke="#000000" fill="none" d=""/><text font-family="OpenSansCondensedLight" font-size="14pt" fill="black" transform="translate(58.9,26.9)"/><rect stroke-width="0" fill="none" width="53.8" height="49.1" transform="translate(2.6,2.5)"/><text font-family="OpenSansCondensedLight" font-size="14pt" fill="black" transform="translate(2.6,2.5)" text-anchor="middle"><tspan x="26.9" y="30.8">O</tspan></text><path stroke="#000000" fill="none" transform="translate(2.6,2.5)" d="M 0 0"/></g><g><path stroke="black" stroke-dasharray="none" d="M 337 493 337 478" fill="none"/><path fill="black" stroke="black" d="" transform="translate(337,493) scale(1,1) rotate(-90)"/><path fill="black" stroke="black" d="M 8 0 L 0 4 L 8 8 z" transform="translate(341,470) scale(1,1) rotate(-270)"/><g><g label-idx="0" cursor="move" transform="translate(337, 485.5)"><rect fill="white" rx="3" ry="3" x="0" y="0" width="0" height="0"/><text text-anchor="middle" font-size="14pt" font-family="OpenSansCondensedLight" y="0.8em" display="none" xml:space="preserve" transform="translate(0,0)"/></g></g></g><g transform="translate(395,413)"><g><g>
<path d="M59,0H0v54h59V0L59,0z" stroke="#000000" stroke-dasharray="none" fill="#FFFFFF"/>
<rect x="2.6" y="2.5" width="53.8" height="49.1" fill="none"/>
<circle fill="none" cx="29.5" cy="0" r="0.1"/>
<circle fill="none" cx="44.1" cy="0" r="0.1"/>
<circle fill="none" cx="59" cy="13.6" r="0.1"/>
<circle fill="none" cx="59" cy="27" r="0.1"/>
<circle fill="none" cx="59" cy="40.4" r="0.1"/>
<circle fill="none" cx="44.1" cy="54" r="0.1"/>
<circle fill="none" cx="29.5" cy="54" r="0.1"/>
<circle fill="none" cx="14.9" cy="54" r="0.1"/>
<circle fill="none" cx="0" cy="40.4" r="0.1"/>
<circle fill="none" cx="0" cy="27" r="0.1"/>
<circle fill="none" cx="0" cy="13.6" r="0.1"/>
<circle fill="none" cx="14.9" cy="0" r="0.1"/>
</g></g><rect stroke="none" stroke-width="0" fill="#FFFFFF" x="0" y="0" width="0" height="0" transform="translate(58.9,26.9)"/><path stroke="#000000" fill="none" d=""/><text font-family="OpenSansCondensedLight" font-size="14pt" fill="black" transform="translate(58.9,26.9)"/><rect stroke-width="0" fill="none" width="53.8" height="49.1" transform="translate(2.6,2.5)"/><text font-family="OpenSansCondensedLight" font-size="14pt" fill="black" transform="translate(2.6,2.5)" text-anchor="middle"><tspan x="26.9" y="30.8">O</tspan></text><path stroke="#000000" fill="none" transform="translate(2.6,2.5)" d="M 0 0"/></g><g><path stroke="black" stroke-dasharray="none" d="M 324 338 303 318" fill="none"/><path fill="black" stroke="black" d="" transform="translate(324,338) scale(1,1) rotate(-136.1)"/><path fill="black" stroke="black" d="M 8 0 L 0 4 L 8 8 z" transform="translate(299.8,309.1) scale(1,1) rotate(43.9)"/><g><g label-idx="0" cursor="move" transform="translate(313.5, 328)"><rect fill="white" rx="3" ry="3" x="0" y="0" width="0" height="0"/><text text-anchor="middle" font-size="14pt" font-family="OpenSansCondensedLight" y="0.8em" display="none" xml:space="preserve" transform="translate(0,0)"/></g></g></g><g transform="translate(393,334)"><g><g>
<path d="M59,0H0v54h59V0L59,0z" stroke="#000000" stroke-dasharray="none" fill="#FFFFFF"/>
<rect x="2.6" y="2.5" width="53.8" height="49.1" fill="none"/>
<circle fill="none" cx="29.5" cy="0" r="0.1"/>
<circle fill="none" cx="44.1" cy="0" r="0.1"/>
<circle fill="none" cx="59" cy="13.6" r="0.1"/>
<circle fill="none" cx="59" cy="27" r="0.1"/>
<circle fill="none" cx="59" cy="40.4" r="0.1"/>
<circle fill="none" cx="44.1" cy="54" r="0.1"/>
<circle fill="none" cx="29.5" cy="54" r="0.1"/>
<circle fill="none" cx="14.9" cy="54" r="0.1"/>
<circle fill="none" cx="0" cy="40.4" r="0.1"/>
<circle fill="none" cx="0" cy="27" r="0.1"/>
<circle fill="none" cx="0" cy="13.6" r="0.1"/>
<circle fill="none" cx="14.9" cy="0" r="0.1"/>
</g></g><rect stroke="none" stroke-width="0" fill="#FFFFFF" x="0" y="0" width="0" height="0" transform="translate(58.9,26.9)"/><path stroke="#000000" fill="none" d=""/><text font-family="OpenSansCondensedLight" font-size="14pt" fill="black" transform="translate(58.9,26.9)"/><rect stroke-width="0" fill="none" width="53.8" height="49.1" transform="translate(2.6,2.5)"/><text font-family="OpenSansCondensedLight" font-size="14pt" fill="black" transform="translate(2.6,2.5)" text-anchor="middle"><tspan x="26.9" y="30.8">O</tspan></text><path stroke="#000000" fill="none" transform="translate(2.6,2.5)" d="M 0 0"/></g><g transform="translate(366,259)"><g><g>
<path d="M59,0H0v54h59V0L59,0z" stroke="#000000" stroke-dasharray="none" fill="#FFFFFF"/>
<rect x="2.6" y="2.5" width="53.8" height="49.1" fill="none"/>
<circle fill="none" cx="29.5" cy="0" r="0.1"/>
<circle fill="none" cx="44.1" cy="0" r="0.1"/>
<circle fill="none" cx="59" cy="13.6" r="0.1"/>
<circle fill="none" cx="59" cy="27" r="0.1"/>
<circle fill="none" cx="59" cy="40.4" r="0.1"/>
<circle fill="none" cx="44.1" cy="54" r="0.1"/>
<circle fill="none" cx="29.5" cy="54" r="0.1"/>
<circle fill="none" cx="14.9" cy="54" r="0.1"/>
<circle fill="none" cx="0" cy="40.4" r="0.1"/>
<circle fill="none" cx="0" cy="27" r="0.1"/>
<circle fill="none" cx="0" cy="13.6" r="0.1"/>
<circle fill="none" cx="14.9" cy="0" r="0.1"/>
</g></g><rect stroke="none" stroke-width="0" fill="#FFFFFF" x="0" y="0" width="0" height="0" transform="translate(58.9,26.9)"/><path stroke="#000000" fill="none" d=""/><text font-family="OpenSansCondensedLight" font-size="14pt" fill="black" transform="translate(58.9,26.9)"/><rect stroke-width="0" fill="none" width="53.8" height="49.1" transform="translate(2.6,2.5)"/><text font-family="OpenSansCondensedLight" font-size="14pt" fill="black" transform="translate(2.6,2.5)" text-anchor="middle"><tspan x="26.9" y="30.8">O</tspan></text><path stroke="#000000" fill="none" transform="translate(2.6,2.5)" d="M 0 0"/></g><g><path stroke="black" stroke-dasharray="none" d="M 337 565 337 555" fill="none"/><path fill="black" stroke="black" d="" transform="translate(337,565) scale(1,1) rotate(-90)"/><path fill="black" stroke="black" d="M 8 0 L 0 4 L 8 8 z" transform="translate(341,547) scale(1,1) rotate(-270)"/><g><g label-idx="0" cursor="move" transform="translate(337, 560)"><rect fill="white" rx="3" ry="3" x="0" y="0" width="0" height="0"/><text text-anchor="middle" font-size="14pt" font-family="OpenSansCondensedLight" y="0.8em" display="none" xml:space="preserve" transform="translate(0,0)"/></g></g></g><g transform="translate(367,183)"><g><g>
<path d="M59,0H0v54h59V0L59,0z" stroke="#000000" stroke-dasharray="none" fill="#FFFFFF"/>
<rect x="2.6" y="2.5" width="53.8" height="49.1" fill="none"/>
<circle fill="none" cx="29.5" cy="0" r="0.1"/>
<circle fill="none" cx="44.1" cy="0" r="0.1"/>
<circle fill="none" cx="59" cy="13.6" r="0.1"/>
<circle fill="none" cx="59" cy="27" r="0.1"/>
<circle fill="none" cx="59" cy="40.4" r="0.1"/>
<circle fill="none" cx="44.1" cy="54" r="0.1"/>
<circle fill="none" cx="29.5" cy="54" r="0.1"/>
<circle fill="none" cx="14.9" cy="54" r="0.1"/>
<circle fill="none" cx="0" cy="40.4" r="0.1"/>
<circle fill="none" cx="0" cy="27" r="0.1"/>
<circle fill="none" cx="0" cy="13.6" r="0.1"/>
<circle fill="none" cx="14.9" cy="0" r="0.1"/>
</g></g><rect stroke="none" stroke-width="0" fill="#FFFFFF" x="0" y="0" width="0" height="0" transform="translate(58.9,26.9)"/><path stroke="#000000" fill="none" d=""/><text font-family="OpenSansCondensedLight" font-size="14pt" fill="black" transform="translate(58.9,26.9)"/><rect stroke-width="0" fill="none" width="53.8" height="49.1" transform="translate(2.6,2.5)"/><text font-family="OpenSansCondensedLight" font-size="14pt" fill="black" transform="translate(2.6,2.5)" text-anchor="middle"><tspan x="26.9" y="30.8">O</tspan></text><path stroke="#000000" fill="none" transform="translate(2.6,2.5)" d="M 0 0"/></g><g><path stroke="black" stroke-dasharray="none" d="M 295 644 318 624" fill="none"/><path fill="black" stroke="black" d="" transform="translate(295,644) scale(1,1) rotate(-40.8)"/><path fill="black" stroke="black" d="M 8 0 L 0 4 L 8 8 z" transform="translate(326.6,622) scale(1,1) rotate(-220.8)"/><g><g label-idx="0" cursor="move" transform="translate(306.5, 634)"><rect fill="white" rx="3" ry="3" x="0" y="0" width="0" height="0"/><text text-anchor="middle" font-size="14pt" font-family="OpenSansCondensedLight" y="0.8em" display="none" xml:space="preserve" transform="translate(0,0)"/></g></g></g><g><path stroke="black" stroke-dasharray="none" d="M 280 719 280 706" fill="none"/><path fill="black" stroke="black" d="" transform="translate(280,719) scale(1,1) rotate(-90)"/><path fill="black" stroke="black" d="M 8 0 L 0 4 L 8 8 z" transform="translate(284,698) scale(1,1) rotate(-270)"/><g><g label-idx="0" cursor="move" transform="translate(280, 712.5)"><rect fill="white" rx="3" ry="3" x="0" y="0" width="0" height="0"/><text text-anchor="middle" font-size="14pt" font-family="OpenSansCondensedLight" y="0.8em" display="none" xml:space="preserve" transform="translate(0,0)"/></g></g></g><g><path stroke="black" stroke-dasharray="none" d="M 367 440 387 440" fill="none"/><path fill="black" stroke="black" d="" transform="translate(367,440) scale(1,1) rotate(0)"/><path fill="black" stroke="black" d="M 8 0 L 0 4 L 8 8 z" transform="translate(395,444) scale(1,1) rotate(-180)"/><g><g label-idx="0" cursor="move" transform="translate(377, 440)"><rect fill="white" rx="3" ry="3" x="0" y="0" width="0" height="0"/><text text-anchor="middle" font-size="14pt" font-family="OpenSansCondensedLight" y="0.8em" display="none" xml:space="preserve" transform="translate(0,0)"/></g></g></g><g><path stroke="black" stroke-dasharray="none" d="M 266 644 247 626" fill="none"/><path fill="black" stroke="black" d="" transform="translate(266,644) scale(1,1) rotate(-136.2)"/><path fill="black" stroke="black" d="M 8 0 L 0 4 L 8 8 z" transform="translate(243.8,617.1) scale(1,1) rotate(43.8)"/><g><g label-idx="0" cursor="move" transform="translate(256.5, 635)"><rect fill="white" rx="3" ry="3" x="0" y="0" width="0" height="0"/><text text-anchor="middle" font-size="14pt" font-family="OpenSansCondensedLight" y="0.8em" display="none" xml:space="preserve" transform="translate(0,0)"/></g></g></g><g><path stroke="black" stroke-dasharray="none" d="M 422 413 422 396" fill="none"/><path fill="black" stroke="black" d="" transform="translate(422,413) scale(1,1) rotate(-90)"/><path fill="black" stroke="black" d="M 8 0 L 0 4 L 8 8 z" transform="translate(426,388) scale(1,1) rotate(-270)"/><g><g label-idx="0" cursor="move" transform="translate(422, 404.5)"><rect fill="white" rx="3" ry="3" x="0" y="0" width="0" height="0"/><text text-anchor="middle" font-size="14pt" font-family="OpenSansCondensedLight" y="0.8em" display="none" xml:space="preserve" transform="translate(0,0)"/></g></g></g><g><path stroke="black" stroke-dasharray="none" d="M 353 338 375 318" fill="none"/><path fill="black" stroke="black" d="" transform="translate(353,338) scale(1,1) rotate(-41.8)"/><path fill="black" stroke="black" d="M 8 0 L 0 4 L 8 8 z" transform="translate(383.7,316) scale(1,1) rotate(-221.8)"/><g><g label-idx="0" cursor="move" transform="translate(364, 328)"><rect fill="white" rx="3" ry="3" x="0" y="0" width="0" height="0"/><text text-anchor="middle" font-size="14pt" font-family="OpenSansCondensedLight" y="0.8em" display="none" xml:space="preserve" transform="translate(0,0)"/></g></g></g><g><path stroke="black" stroke-dasharray="none" d="M 396 259 396 245" fill="none"/><path fill="black" stroke="black" d="" transform="translate(396,259) scale(1,1) rotate(-90)"/><path fill="black" stroke="black" d="M 8 0 L 0 4 L 8 8 z" transform="translate(400,237) scale(1,1) rotate(-270)"/><g><g label-idx="0" cursor="move" transform="translate(396, 252)"><rect fill="white" rx="3" ry="3" x="0" y="0" width="0" height="0"/><text text-anchor="middle" font-size="14pt" font-family="OpenSansCondensedLight" y="0.8em" display="none" xml:space="preserve" transform="translate(0,0)"/></g></g></g></g><defs/></svg>