<svg xmlns="http://www.w3.org/2000/svg" xmlns:xlink="http://www.w3.org/1999/xlink" version="1.1" width="819.1" height="531.4" viewBox="22.9 133.1 819.1 531.4"><g><g transform="translate(155,134)"><g><g>
<path d="M171,0H0v284h171V0L171,0z" stroke="#000000" stroke-dasharray="none" fill="#FFFFFF"/>
<rect x="7.5" y="12.9" width="156.1" height="258.1" fill="none"/>
<circle fill="none" cx="85.5" cy="0" r="0.1"/>
<circle fill="none" cx="127.9" cy="0" r="0.1"/>
<circle fill="none" cx="171" cy="71.6" r="0.1"/>
<circle fill="none" cx="171" cy="142" r="0.1"/>
<circle fill="none" cx="171" cy="212.4" r="0.1"/>
<circle fill="none" cx="127.9" cy="284" r="0.1"/>
<circle fill="none" cx="85.5" cy="284" r="0.1"/>
<circle fill="none" cx="43.1" cy="284" r="0.1"/>
<circle fill="none" cx="0" cy="212.4" r="0.1"/>
<circle fill="none" cx="0" cy="142" r="0.1"/>
<circle fill="none" cx="0" cy="71.6" r="0.1"/>
<circle fill="none" cx="43.1" cy="0" r="0.1"/>
</g></g><rect stroke="none" stroke-width="0" fill="#FFFFFF" x="0" y="0" width="0" height="0" transform="translate(170.9,141.9)"/><path stroke="#000000" fill="none" d=""/><text font-family="OpenSansCondensedLight" font-size="14pt" fill="black" transform="translate(170.9,141.9)"/><rect stroke-width="0" fill="none" width="156.1" height="258.1" transform="translate(7.5,12.9)"/><text font-family="OpenSansCondensedLight" font-size="14pt" fill="black" transform="translate(7.5,12.9)" text-anchor="middle"><tspan x="78" y="135.3"> </tspan></text><path stroke="#000000" fill="none" transform="translate(7.5,12.9)" d="M 0 0"/></g><g transform="translate(397,135)"><g><g>
<path d="M171,0H0v284h171V0L171,0z" stroke="#000000" stroke-dasharray="none" fill="#FFFFFF"/>
<rect x="7.5" y="12.9" width="156.1" height="258.1" fill="none"/>
<circle fill="none" cx="85.5" cy="0" r="0.1"/>
<circle fill="none" cx="127.9" cy="0" r="0.1"/>
<circle fill="none" cx="171" cy="71.6" r="0.1"/>
<circle fill="none" cx="171" cy="142" r="0.1"/>
<circle fill="none" cx="171" cy="212.4" r="0.1"/>
<circle fill="none" cx="127.9" cy="284" r="0.1"/>
<circle fill="none" cx="85.5" cy="284" r="0.1"/>
<circle fill="none" cx="43.1" cy="284" r="0.1"/>
<circle fill="none" cx="0" cy="212.4" r="0.1"/>
<circle fill="none" cx="0" cy="142" r="0.1"/>
<circle fill="none" cx="0" cy="71.6" r="0.1"/>
<circle fill="none" cx="43.1" cy="0" r="0.1"/>
</g></g><rect stroke="none" stroke-width="0" fill="#FFFFFF" x="0" y="0" width="0" height="0" transform="translate(170.9,141.9)"/><path stroke="#000000" fill="none" d=""/><text font-family="OpenSansCondensedLight" font-size="14pt" fill="black" transform="translate(170.9,141.9)"/><rect stroke-width="0" fill="none" width="156.1" height="258.1" transform="translate(7.5,12.9)"/><text font-family="OpenSansCondensedLight" font-size="14pt" fill="black" transform="translate(7.5,12.9)" text-anchor="middle"><tspan x="78" y="135.3"> </tspan></text><path stroke="#000000" fill="none" transform="translate(7.5,12.9)" d="M 0 0"/></g><g transform="translate(648,134)"><g><g>
<path d="M171,0H0v284h171V0L171,0z" stroke="#000000" stroke-dasharray="none" fill="#FFFFFF"/>
<rect x="7.5" y="12.9" width="156.1" height="258.1" fill="none"/>
<circle fill="none" cx="85.5" cy="0" r="0.1"/>
<circle fill="none" cx="127.9" cy="0" r="0.1"/>
<circle fill="none" cx="171" cy="71.6" r="0.1"/>
<circle fill="none" cx="171" cy="142" r="0.1"/>
<circle fill="none" cx="171" cy="212.4" r="0.1"/>
<circle fill="none" cx="127.9" cy="284" r="0.1"/>
<circle fill="none" cx="85.5" cy="284" r="0.1"/>
<circle fill="none" cx="43.1" cy="284" r="0.1"/>
<circle fill="none" cx="0" cy="212.4" r="0.1"/>
<circle fill="none" cx="0" cy="142" r="0.1"/>
<circle fill="none" cx="0" cy="71.6" r="0.1"/>
<circle fill="none" cx="43.1" cy="0" r="0.1"/>
</g></g><rect stroke="none" stroke-width="0" fill="#FFFFFF" x="0" y="0" width="0" height="0" transform="translate(170.9,141.9)"/><path stroke="#000000" fill="none" d=""/><text font-family="OpenSansCondensedLight" font-size="14pt" fill="black" transform="translate(170.9,141.9)"/><rect stroke-width="0" fill="none" width="156.1" height="258.1" transform="translate(7.5,12.9)"/><text font-family="OpenSansCondensedLight" font-size="14pt" fill="black" transform="translate(7.5,12.9)" text-anchor="middle"><tspan x="78" y="135.3"> </tspan></text><path stroke="#000000" fill="none" transform="translate(7.5,12.9)" d="M 0 0"/></g><g transform="translate(169,139)"><g><g>
<path d="M142.7,0H0v30.7h142.7V0L142.7,0z" stroke="#000000" stroke-dasharray="none" fill="#FFFFFF"/>
<rect x="6.2" y="1.4" width="130.2" height="27.9" fill="none"/>
<circle fill="none" cx="71.3" cy="0" r="0.1"/>
<circle fill="none" cx="106.7" cy="0" r="0.1"/>
<circle fill="none" cx="142.7" cy="7.7" r="0.1"/>
<circle fill="none" cx="142.7" cy="15.3" r="0.1"/>
<circle fill="none" cx="142.7" cy="22.9" r="0.1"/>
<circle fill="none" cx="106.7" cy="30.7" r="0.1"/>
<circle fill="none" cx="71.3" cy="30.7" r="0.1"/>
<circle fill="none" cx="36" cy="30.7" r="0.1"/>
<circle fill="none" cx="0" cy="22.9" r="0.1"/>
<circle fill="none" cx="0" cy="15.3" r="0.1"/>
<circle fill="none" cx="0" cy="7.7" r="0.1"/>
<circle fill="none" cx="36" cy="0" r="0.1"/>
</g></g><rect stroke="none" stroke-width="0" fill="#FFFFFF" x="0" y="0" width="0" height="0" transform="translate(142.6,15.2)"/><path stroke="#000000" fill="none" d=""/><text font-family="OpenSansCondensedLight" font-size="14pt" fill="black" transform="translate(142.6,15.2)"/><rect stroke-width="0" fill="none" width="130.2" height="27.9" transform="translate(6.2,1.4)"/><text font-family="OpenSansCondensedLight" font-size="14pt" fill="black" transform="translate(6.2,1.4)" text-anchor="middle"><tspan x="65.1" y="9.7">TRANSACTION</tspan><tspan x="65.1" y="30.7">1 302</tspan></text><path stroke="#000000" fill="none" transform="translate(6.2,1.4)" d="M 58.1 33 86.1 33"/></g><g transform="translate(197,277)"><g><g>
<path d="M64,0H0v29h64V0L64,0z" stroke="#000000" stroke-dasharray="none" fill="#FFFFFF"/>
<rect x="2.8" y="1.3" width="58.4" height="26.4" fill="none"/>
<circle fill="none" cx="32" cy="0" r="0.1"/>
<circle fill="none" cx="47.9" cy="0" r="0.1"/>
<circle fill="none" cx="64" cy="7.3" r="0.1"/>
<circle fill="none" cx="64" cy="14.5" r="0.1"/>
<circle fill="none" cx="64" cy="21.7" r="0.1"/>
<circle fill="none" cx="47.9" cy="29" r="0.1"/>
<circle fill="none" cx="32" cy="29" r="0.1"/>
<circle fill="none" cx="16.1" cy="29" r="0.1"/>
<circle fill="none" cx="0" cy="21.7" r="0.1"/>
<circle fill="none" cx="0" cy="14.5" r="0.1"/>
<circle fill="none" cx="0" cy="7.3" r="0.1"/>
<circle fill="none" cx="16.1" cy="0" r="0.1"/>
</g></g><rect stroke="none" stroke-width="0" fill="#FFFFFF" x="0" y="0" width="0" height="0" transform="translate(63.9,14.4)"/><path stroke="#000000" fill="none" d=""/><text font-family="OpenSansCondensedLight" font-size="14pt" fill="black" transform="translate(63.9,14.4)"/><rect stroke-width="0" fill="none" width="58.4" height="26.4" transform="translate(2.8,1.3)"/><text font-family="OpenSansCondensedLight" font-size="14pt" fill="black" transform="translate(2.8,1.3)" text-anchor="middle"><tspan x="29.2" y="19.5">HASH</tspan></text><path stroke="#000000" fill="none" transform="translate(2.8,1.3)" d="M 0 0"/></g><g transform="translate(412,141)"><g><g>
<path d="M142.7,0H0v30.7h142.7V0L142.7,0z" stroke="#000000" stroke-dasharray="none" fill="#FFFFFF"/>
<rect x="6.2" y="1.4" width="130.2" height="27.9" fill="none"/>
<circle fill="none" cx="71.3" cy="0" r="0.1"/>
<circle fill="none" cx="106.7" cy="0" r="0.1"/>
<circle fill="none" cx="142.7" cy="7.7" r="0.1"/>
<circle fill="none" cx="142.7" cy="15.3" r="0.1"/>
<circle fill="none" cx="142.7" cy="22.9" r="0.1"/>
<circle fill="none" cx="106.7" cy="30.7" r="0.1"/>
<circle fill="none" cx="71.3" cy="30.7" r="0.1"/>
<circle fill="none" cx="36" cy="30.7" r="0.1"/>
<circle fill="none" cx="0" cy="22.9" r="0.1"/>
<circle fill="none" cx="0" cy="15.3" r="0.1"/>
<circle fill="none" cx="0" cy="7.7" r="0.1"/>
<circle fill="none" cx="36" cy="0" r="0.1"/>
</g></g><rect stroke="none" stroke-width="0" fill="#FFFFFF" x="0" y="0" width="0" height="0" transform="translate(142.6,15.2)"/><path stroke="#000000" fill="none" d=""/><text font-family="OpenSansCondensedLight" font-size="14pt" fill="black" transform="translate(142.6,15.2)"/><rect stroke-width="0" fill="none" width="130.2" height="27.9" transform="translate(6.2,1.4)"/><text font-family="OpenSansCondensedLight" font-size="14pt" fill="black" transform="translate(6.2,1.4)" text-anchor="middle"><tspan x="65.1" y="9.7">TRANSACTION</tspan><tspan x="65.1" y="30.7">2 304</tspan></text><path stroke="#000000" fill="none" transform="translate(6.2,1.4)" d="M 58.1 33 86.1 33"/></g><g transform="translate(163,177)"><g><g>
<path d="M135,0H0v58h135V0L135,0z" stroke="#000000" stroke-dasharray="none" fill="#FFFFFF"/>
<rect x="5.9" y="2.6" width="123.2" height="52.7" fill="none"/>
<circle fill="none" cx="67.5" cy="0" r="0.1"/>
<circle fill="none" cx="101" cy="0" r="0.1"/>
<circle fill="none" cx="135" cy="14.6" r="0.1"/>
<circle fill="none" cx="135" cy="29" r="0.1"/>
<circle fill="none" cx="135" cy="43.4" r="0.1"/>
<circle fill="none" cx="101" cy="58" r="0.1"/>
<circle fill="none" cx="67.5" cy="58" r="0.1"/>
<circle fill="none" cx="34.1" cy="58" r="0.1"/>
<circle fill="none" cx="0" cy="43.4" r="0.1"/>
<circle fill="none" cx="0" cy="29" r="0.1"/>
<circle fill="none" cx="0" cy="14.6" r="0.1"/>
<circle fill="none" cx="34.1" cy="0" r="0.1"/>
</g></g><rect stroke="none" stroke-width="0" fill="#FFFFFF" x="0" y="0" width="0" height="0" transform="translate(134.9,28.9)"/><path stroke="#000000" fill="none" d=""/><text font-family="OpenSansCondensedLight" font-size="14pt" fill="black" transform="translate(134.9,28.9)"/><rect stroke-width="0" fill="none" width="123.2" height="52.7" transform="translate(5.9,2.6)"/><text font-family="OpenSansCondensedLight" font-size="14pt" fill="black" transform="translate(5.9,2.6)" text-anchor="middle"><tspan x="61.6" y="22.2">O(1) PUBLIC</tspan><tspan x="61.6" y="43.2">KEY 308</tspan></text><path stroke="#000000" fill="none" transform="translate(5.9,2.6)" d="M 69.1 45 97.1 45"/></g><g transform="translate(183,347)"><g><g>
<path d="M113,0H0v56h113V0L113,0z" stroke="#000000" stroke-dasharray="none" fill="#FFFFFF"/>
<rect x="4.9" y="2.6" width="103.1" height="50.9" fill="none"/>
<circle fill="none" cx="56.5" cy="0" r="0.1"/>
<circle fill="none" cx="84.5" cy="0" r="0.1"/>
<circle fill="none" cx="113" cy="14.1" r="0.1"/>
<circle fill="none" cx="113" cy="28" r="0.1"/>
<circle fill="none" cx="113" cy="41.9" r="0.1"/>
<circle fill="none" cx="84.5" cy="56" r="0.1"/>
<circle fill="none" cx="56.5" cy="56" r="0.1"/>
<circle fill="none" cx="28.5" cy="56" r="0.1"/>
<circle fill="none" cx="0" cy="41.9" r="0.1"/>
<circle fill="none" cx="0" cy="28" r="0.1"/>
<circle fill="none" cx="0" cy="14.1" r="0.1"/>
<circle fill="none" cx="28.5" cy="0" r="0.1"/>
</g></g><rect stroke="none" stroke-width="0" fill="#FFFFFF" x="0" y="0" width="0" height="0" transform="translate(112.9,27.9)"/><path stroke="#000000" fill="none" d=""/><text font-family="OpenSansCondensedLight" font-size="14pt" fill="black" transform="translate(112.9,27.9)"/><rect stroke-width="0" fill="none" width="103.1" height="50.9" transform="translate(4.9,2.6)"/><text font-family="OpenSansCondensedLight" font-size="14pt" fill="black" transform="translate(4.9,2.6)" text-anchor="middle"><tspan x="51.6" y="10.7">O(0)</tspan><tspan x="51.6" y="31.7">SIGNATURE</tspan><tspan x="51.6" y="52.7">314</tspan></text><path stroke="#000000" fill="none" transform="translate(4.9,2.6)" d="M 37.6 55 65.6 55"/></g><g transform="translate(452,266)"><g><g>
<path d="M64,0H0v29h64V0L64,0z" stroke="#000000" stroke-dasharray="none" fill="#FFFFFF"/>
<rect x="2.8" y="1.3" width="58.4" height="26.4" fill="none"/>
<circle fill="none" cx="32" cy="0" r="0.1"/>
<circle fill="none" cx="47.9" cy="0" r="0.1"/>
<circle fill="none" cx="64" cy="7.3" r="0.1"/>
<circle fill="none" cx="64" cy="14.5" r="0.1"/>
<circle fill="none" cx="64" cy="21.7" r="0.1"/>
<circle fill="none" cx="47.9" cy="29" r="0.1"/>
<circle fill="none" cx="32" cy="29" r="0.1"/>
<circle fill="none" cx="16.1" cy="29" r="0.1"/>
<circle fill="none" cx="0" cy="21.7" r="0.1"/>
<circle fill="none" cx="0" cy="14.5" r="0.1"/>
<circle fill="none" cx="0" cy="7.3" r="0.1"/>
<circle fill="none" cx="16.1" cy="0" r="0.1"/>
</g></g><rect stroke="none" stroke-width="0" fill="#FFFFFF" x="0" y="0" width="0" height="0" transform="translate(63.9,14.4)"/><path stroke="#000000" fill="none" d=""/><text font-family="OpenSansCondensedLight" font-size="14pt" fill="black" transform="translate(63.9,14.4)"/><rect stroke-width="0" fill="none" width="58.4" height="26.4" transform="translate(2.8,1.3)"/><text font-family="OpenSansCondensedLight" font-size="14pt" fill="black" transform="translate(2.8,1.3)" text-anchor="middle"><tspan x="29.2" y="19.5">HASH</tspan></text><path stroke="#000000" fill="none" transform="translate(2.8,1.3)" d="M 0 0"/></g><g transform="translate(663,141)"><g><g>
<path d="M142.7,0H0v30.7h142.7V0L142.7,0z" stroke="#000000" stroke-dasharray="none" fill="#FFFFFF"/>
<rect x="6.2" y="1.4" width="130.2" height="27.9" fill="none"/>
<circle fill="none" cx="71.3" cy="0" r="0.1"/>
<circle fill="none" cx="106.7" cy="0" r="0.1"/>
<circle fill="none" cx="142.7" cy="7.7" r="0.1"/>
<circle fill="none" cx="142.7" cy="15.3" r="0.1"/>
<circle fill="none" cx="142.7" cy="22.9" r="0.1"/>
<circle fill="none" cx="106.7" cy="30.7" r="0.1"/>
<circle fill="none" cx="71.3" cy="30.7" r="0.1"/>
<circle fill="none" cx="36" cy="30.7" r="0.1"/>
<circle fill="none" cx="0" cy="22.9" r="0.1"/>
<circle fill="none" cx="0" cy="15.3" r="0.1"/>
<circle fill="none" cx="0" cy="7.7" r="0.1"/>
<circle fill="none" cx="36" cy="0" r="0.1"/>
</g></g><rect stroke="none" stroke-width="0" fill="#FFFFFF" x="0" y="0" width="0" height="0" transform="translate(142.6,15.2)"/><path stroke="#000000" fill="none" d=""/><text font-family="OpenSansCondensedLight" font-size="14pt" fill="black" transform="translate(142.6,15.2)"/><rect stroke-width="0" fill="none" width="130.2" height="27.9" transform="translate(6.2,1.4)"/><text font-family="OpenSansCondensedLight" font-size="14pt" fill="black" transform="translate(6.2,1.4)" text-anchor="middle"><tspan x="65.1" y="9.7">TRANSACTION</tspan><tspan x="65.1" y="30.7">3 306</tspan></text><path stroke="#000000" fill="none" transform="translate(6.2,1.4)" d="M 58.1 33 86.1 33"/></g><g transform="translate(23,264)"><g><g>
<path d="M56.7,0H0v69.9h56.7V0L56.7,0z" fill="none" stroke="none" stroke-dasharray="none"/>
<rect x="2.5" y="3.2" width="51.7" height="63.5" fill="none"/>
<circle fill="none" cx="28.3" cy="0" r="0.1"/>
<circle fill="none" cx="42.4" cy="0" r="0.1"/>
<circle fill="none" cx="56.7" cy="17.6" r="0.1"/>
<circle fill="none" cx="56.7" cy="34.9" r="0.1"/>
<circle fill="none" cx="56.7" cy="52.3" r="0.1"/>
<circle fill="none" cx="42.4" cy="69.9" r="0.1"/>
<circle fill="none" cx="28.3" cy="69.9" r="0.1"/>
<circle fill="none" cx="14.3" cy="69.9" r="0.1"/>
<circle fill="none" cx="0" cy="52.3" r="0.1"/>
<circle fill="none" cx="0" cy="34.9" r="0.1"/>
<circle fill="none" cx="0" cy="17.6" r="0.1"/>
<circle fill="none" cx="14.3" cy="0" r="0.1"/>
</g></g><rect stroke="none" stroke-width="0" fill="#FFFFFF" x="0" y="0" width="0" height="0" transform="translate(56.6,34.8)"/><path stroke="#000000" fill="none" d=""/><text font-family="OpenSansCondensedLight" font-size="14pt" fill="black" transform="translate(56.6,34.8)"/><rect stroke-width="0" fill="none" width="51.7" height="63.5" transform="translate(2.5,3.2)"/><text font-family="OpenSansCondensedLight" font-size="14pt" fill="black" transform="translate(2.5,3.2)" text-anchor="middle"><tspan x="25.9" y="17.1">O(0)</tspan><tspan x="25.9" y="38.1">Private</tspan><tspan x="25.9" y="59.1">Key</tspan></text><path stroke="#000000" fill="none" transform="translate(2.5,3.2)" d="M 0 0"/></g><g transform="translate(414,176)"><g><g>
<path d="M135,0H0v58h135V0L135,0z" stroke="#000000" stroke-dasharray="none" fill="#FFFFFF"/>
<rect x="5.9" y="2.6" width="123.2" height="52.7" fill="none"/>
<circle fill="none" cx="67.5" cy="0" r="0.1"/>
<circle fill="none" cx="101" cy="0" r="0.1"/>
<circle fill="none" cx="135" cy="14.6" r="0.1"/>
<circle fill="none" cx="135" cy="29" r="0.1"/>
<circle fill="none" cx="135" cy="43.4" r="0.1"/>
<circle fill="none" cx="101" cy="58" r="0.1"/>
<circle fill="none" cx="67.5" cy="58" r="0.1"/>
<circle fill="none" cx="34.1" cy="58" r="0.1"/>
<circle fill="none" cx="0" cy="43.4" r="0.1"/>
<circle fill="none" cx="0" cy="29" r="0.1"/>
<circle fill="none" cx="0" cy="14.6" r="0.1"/>
<circle fill="none" cx="34.1" cy="0" r="0.1"/>
</g></g><rect stroke="none" stroke-width="0" fill="#FFFFFF" x="0" y="0" width="0" height="0" transform="translate(134.9,28.9)"/><path stroke="#000000" fill="none" d=""/><text font-family="OpenSansCondensedLight" font-size="14pt" fill="black" transform="translate(134.9,28.9)"/><rect stroke-width="0" fill="none" width="123.2" height="52.7" transform="translate(5.9,2.6)"/><text font-family="OpenSansCondensedLight" font-size="14pt" fill="black" transform="translate(5.9,2.6)" text-anchor="middle"><tspan x="61.6" y="22.2">O(2) PUBLIC</tspan><tspan x="61.6" y="43.2">KEY 310</tspan></text><path stroke="#000000" fill="none" transform="translate(5.9,2.6)" d="M 69.1 45 97.1 45"/></g><g transform="translate(432,350)"><g><g>
<path d="M113,0H0v56h113V0L113,0z" stroke="#000000" stroke-dasharray="none" fill="#FFFFFF"/>
<rect x="4.9" y="2.6" width="103.1" height="50.9" fill="none"/>
<circle fill="none" cx="56.5" cy="0" r="0.1"/>
<circle fill="none" cx="84.5" cy="0" r="0.1"/>
<circle fill="none" cx="113" cy="14.1" r="0.1"/>
<circle fill="none" cx="113" cy="28" r="0.1"/>
<circle fill="none" cx="113" cy="41.9" r="0.1"/>
<circle fill="none" cx="84.5" cy="56" r="0.1"/>
<circle fill="none" cx="56.5" cy="56" r="0.1"/>
<circle fill="none" cx="28.5" cy="56" r="0.1"/>
<circle fill="none" cx="0" cy="41.9" r="0.1"/>
<circle fill="none" cx="0" cy="28" r="0.1"/>
<circle fill="none" cx="0" cy="14.1" r="0.1"/>
<circle fill="none" cx="28.5" cy="0" r="0.1"/>
</g></g><rect stroke="none" stroke-width="0" fill="#FFFFFF" x="0" y="0" width="0" height="0" transform="translate(112.9,27.9)"/><path stroke="#000000" fill="none" d=""/><text font-family="OpenSansCondensedLight" font-size="14pt" fill="black" transform="translate(112.9,27.9)"/><rect stroke-width="0" fill="none" width="103.1" height="50.9" transform="translate(4.9,2.6)"/><text font-family="OpenSansCondensedLight" font-size="14pt" fill="black" transform="translate(4.9,2.6)" text-anchor="middle"><tspan x="51.6" y="10.7">O(1)</tspan><tspan x="51.6" y="31.7">SIGNATURE</tspan><tspan x="51.6" y="52.7">316</tspan></text><path stroke="#000000" fill="none" transform="translate(4.9,2.6)" d="M 37.6 55 65.6 55"/></g><g transform="translate(694,264)"><g><g>
<path d="M64,0H0v29h64V0L64,0z" stroke="#000000" stroke-dasharray="none" fill="#FFFFFF"/>
<rect x="2.8" y="1.3" width="58.4" height="26.4" fill="none"/>
<circle fill="none" cx="32" cy="0" r="0.1"/>
<circle fill="none" cx="47.9" cy="0" r="0.1"/>
<circle fill="none" cx="64" cy="7.3" r="0.1"/>
<circle fill="none" cx="64" cy="14.5" r="0.1"/>
<circle fill="none" cx="64" cy="21.7" r="0.1"/>
<circle fill="none" cx="47.9" cy="29" r="0.1"/>
<circle fill="none" cx="32" cy="29" r="0.1"/>
<circle fill="none" cx="16.1" cy="29" r="0.1"/>
<circle fill="none" cx="0" cy="21.7" r="0.1"/>
<circle fill="none" cx="0" cy="14.5" r="0.1"/>
<circle fill="none" cx="0" cy="7.3" r="0.1"/>
<circle fill="none" cx="16.1" cy="0" r="0.1"/>
</g></g><rect stroke="none" stroke-width="0" fill="#FFFFFF" x="0" y="0" width="0" height="0" transform="translate(63.9,14.4)"/><path stroke="#000000" fill="none" d=""/><text font-family="OpenSansCondensedLight" font-size="14pt" fill="black" transform="translate(63.9,14.4)"/><rect stroke-width="0" fill="none" width="58.4" height="26.4" transform="translate(2.8,1.3)"/><text font-family="OpenSansCondensedLight" font-size="14pt" fill="black" transform="translate(2.8,1.3)" text-anchor="middle"><tspan x="29.2" y="19.5">HASH</tspan></text><path stroke="#000000" fill="none" transform="translate(2.8,1.3)" d="M 0 0"/></g><g><path stroke="black" stroke-dasharray="none" d="M 65 334 94 358 175 358" fill="none"/><path fill="black" stroke="black" d="" transform="translate(65,334) scale(1,1) rotate(39.6)"/><path fill="black" stroke="black" d="M 8 0 L 0 4 L 8 8 z" transform="translate(183,362) scale(1,1) rotate(-180)"/><g><g label-idx="0" cursor="move" transform="translate(115.7, 358)"><rect fill="white" rx="3" ry="3" x="0" y="0" width="0" height="0"/><text text-anchor="middle" font-size="14pt" font-family="OpenSansCondensedLight" y="0.8em" display="none" xml:space="preserve" transform="translate(0,0)"/></g></g></g><g transform="translate(23,365)"><g><g>
<path d="M61,0H0v69.6h61V0L61,0z" fill="none" stroke="none" stroke-dasharray="none"/>
<rect x="2.7" y="3.2" width="55.7" height="63.3" fill="none"/>
<circle fill="none" cx="30.5" cy="0" r="0.1"/>
<circle fill="none" cx="45.7" cy="0" r="0.1"/>
<circle fill="none" cx="61" cy="17.6" r="0.1"/>
<circle fill="none" cx="61" cy="34.8" r="0.1"/>
<circle fill="none" cx="61" cy="52.1" r="0.1"/>
<circle fill="none" cx="45.7" cy="69.6" r="0.1"/>
<circle fill="none" cx="30.5" cy="69.6" r="0.1"/>
<circle fill="none" cx="15.4" cy="69.6" r="0.1"/>
<circle fill="none" cx="0" cy="52.1" r="0.1"/>
<circle fill="none" cx="0" cy="34.8" r="0.1"/>
<circle fill="none" cx="0" cy="17.6" r="0.1"/>
<circle fill="none" cx="15.4" cy="0" r="0.1"/>
</g></g><rect stroke="none" stroke-width="0" fill="#FFFFFF" x="0" y="0" width="0" height="0" transform="translate(60.9,34.7)"/><path stroke="#000000" fill="none" d=""/><text font-family="OpenSansCondensedLight" font-size="14pt" fill="black" transform="translate(60.9,34.7)"/><rect stroke-width="0" fill="none" width="55.7" height="63.3" transform="translate(2.7,3.2)"/><text font-family="OpenSansCondensedLight" font-size="14pt" fill="black" transform="translate(2.7,3.2)" text-anchor="middle"><tspan x="27.9" y="16.9">O(0)</tspan><tspan x="27.9" y="37.9">Public</tspan><tspan x="27.9" y="58.9">Key</tspan></text><path stroke="#000000" fill="none" transform="translate(2.7,3.2)" d="M 0 0"/></g><g transform="translate(661,176)"><g><g>
<path d="M135,0H0v58h135V0L135,0z" stroke="#000000" stroke-dasharray="none" fill="#FFFFFF"/>
<rect x="5.9" y="2.6" width="123.2" height="52.7" fill="none"/>
<circle fill="none" cx="67.5" cy="0" r="0.1"/>
<circle fill="none" cx="101" cy="0" r="0.1"/>
<circle fill="none" cx="135" cy="14.6" r="0.1"/>
<circle fill="none" cx="135" cy="29" r="0.1"/>
<circle fill="none" cx="135" cy="43.4" r="0.1"/>
<circle fill="none" cx="101" cy="58" r="0.1"/>
<circle fill="none" cx="67.5" cy="58" r="0.1"/>
<circle fill="none" cx="34.1" cy="58" r="0.1"/>
<circle fill="none" cx="0" cy="43.4" r="0.1"/>
<circle fill="none" cx="0" cy="29" r="0.1"/>
<circle fill="none" cx="0" cy="14.6" r="0.1"/>
<circle fill="none" cx="34.1" cy="0" r="0.1"/>
</g></g><rect stroke="none" stroke-width="0" fill="#FFFFFF" x="0" y="0" width="0" height="0" transform="translate(134.9,28.9)"/><path stroke="#000000" fill="none" d=""/><text font-family="OpenSansCondensedLight" font-size="14pt" fill="black" transform="translate(134.9,28.9)"/><rect stroke-width="0" fill="none" width="123.2" height="52.7" transform="translate(5.9,2.6)"/><text font-family="OpenSansCondensedLight" font-size="14pt" fill="black" transform="translate(5.9,2.6)" text-anchor="middle"><tspan x="61.6" y="22.2">O(3) PUBLIC</tspan><tspan x="61.6" y="43.2">KEY 312</tspan></text><path stroke="#000000" fill="none" transform="translate(5.9,2.6)" d="M 69.1 45 97.1 45"/></g><g transform="translate(682,352)"><g><g>
<path d="M113,0H0v56h113V0L113,0z" stroke="#000000" stroke-dasharray="none" fill="#FFFFFF"/>
<rect x="4.9" y="2.6" width="103.1" height="50.9" fill="none"/>
<circle fill="none" cx="56.5" cy="0" r="0.1"/>
<circle fill="none" cx="84.5" cy="0" r="0.1"/>
<circle fill="none" cx="113" cy="14.1" r="0.1"/>
<circle fill="none" cx="113" cy="28" r="0.1"/>
<circle fill="none" cx="113" cy="41.9" r="0.1"/>
<circle fill="none" cx="84.5" cy="56" r="0.1"/>
<circle fill="none" cx="56.5" cy="56" r="0.1"/>
<circle fill="none" cx="28.5" cy="56" r="0.1"/>
<circle fill="none" cx="0" cy="41.9" r="0.1"/>
<circle fill="none" cx="0" cy="28" r="0.1"/>
<circle fill="none" cx="0" cy="14.1" r="0.1"/>
<circle fill="none" cx="28.5" cy="0" r="0.1"/>
</g></g><rect stroke="none" stroke-width="0" fill="#FFFFFF" x="0" y="0" width="0" height="0" transform="translate(112.9,27.9)"/><path stroke="#000000" fill="none" d=""/><text font-family="OpenSansCondensedLight" font-size="14pt" fill="black" transform="translate(112.9,27.9)"/><rect stroke-width="0" fill="none" width="103.1" height="50.9" transform="translate(4.9,2.6)"/><text font-family="OpenSansCondensedLight" font-size="14pt" fill="black" transform="translate(4.9,2.6)" text-anchor="middle"><tspan x="51.6" y="10.7">O(2)</tspan><tspan x="51.6" y="31.7">SIGNATURE</tspan><tspan x="51.6" y="52.7">318</tspan></text><path stroke="#000000" fill="none" transform="translate(4.9,2.6)" d="M 37.6 55 65.6 55"/></g><g transform="translate(221,461)"><g><g>
<path d="M56.7,0H0v69.3h56.7V0L56.7,0z" fill="none" stroke="none" stroke-dasharray="none"/>
<rect x="2.5" y="3.2" width="51.7" height="63" fill="none"/>
<circle fill="none" cx="28.3" cy="0" r="0.1"/>
<circle fill="none" cx="42.4" cy="0" r="0.1"/>
<circle fill="none" cx="56.7" cy="17.5" r="0.1"/>
<circle fill="none" cx="56.7" cy="34.7" r="0.1"/>
<circle fill="none" cx="56.7" cy="51.8" r="0.1"/>
<circle fill="none" cx="42.4" cy="69.3" r="0.1"/>
<circle fill="none" cx="28.3" cy="69.3" r="0.1"/>
<circle fill="none" cx="14.3" cy="69.3" r="0.1"/>
<circle fill="none" cx="0" cy="51.8" r="0.1"/>
<circle fill="none" cx="0" cy="34.7" r="0.1"/>
<circle fill="none" cx="0" cy="17.5" r="0.1"/>
<circle fill="none" cx="14.3" cy="0" r="0.1"/>
</g></g><rect stroke="none" stroke-width="0" fill="#FFFFFF" x="0" y="0" width="0" height="0" transform="translate(56.6,34.6)"/><path stroke="#000000" fill="none" d=""/><text font-family="OpenSansCondensedLight" font-size="14pt" fill="black" transform="translate(56.6,34.6)"/><rect stroke-width="0" fill="none" width="51.7" height="63" transform="translate(2.5,3.2)"/><text font-family="OpenSansCondensedLight" font-size="14pt" fill="black" transform="translate(2.5,3.2)" text-anchor="middle"><tspan x="25.9" y="16.8">O(1)</tspan><tspan x="25.9" y="37.8">Private</tspan><tspan x="25.9" y="58.8">Key</tspan></text><path stroke="#000000" fill="none" transform="translate(2.5,3.2)" d="M 0 0"/></g><g transform="translate(42,210)"><g><g>
<path d="M56.7,0H0v24.2h56.7V0L56.7,0z" fill="none" stroke="none" stroke-dasharray="none"/>
<rect x="2.5" y="1.1" width="51.7" height="22" fill="none"/>
<circle fill="none" cx="28.3" cy="0" r="0.1"/>
<circle fill="none" cx="42.4" cy="0" r="0.1"/>
<circle fill="none" cx="56.7" cy="6.1" r="0.1"/>
<circle fill="none" cx="56.7" cy="12.1" r="0.1"/>
<circle fill="none" cx="56.7" cy="18.1" r="0.1"/>
<circle fill="none" cx="42.4" cy="24.2" r="0.1"/>
<circle fill="none" cx="28.3" cy="24.2" r="0.1"/>
<circle fill="none" cx="14.3" cy="24.2" r="0.1"/>
<circle fill="none" cx="0" cy="18.1" r="0.1"/>
<circle fill="none" cx="0" cy="12.1" r="0.1"/>
<circle fill="none" cx="0" cy="6.1" r="0.1"/>
<circle fill="none" cx="14.3" cy="0" r="0.1"/>
</g></g><rect stroke="none" stroke-width="0" fill="#FFFFFF" x="0" y="0" width="0" height="0" transform="translate(56.6,12)"/><path stroke="#000000" fill="none" d=""/><text font-family="OpenSansCondensedLight" font-size="14pt" fill="black" transform="translate(56.6,12)"/><rect stroke-width="0" fill="none" width="51.7" height="22" transform="translate(2.5,1.1)"/><text font-family="OpenSansCondensedLight" font-size="14pt" fill="black" transform="translate(2.5,1.1)" text-anchor="middle"><tspan x="25.9" y="17.3">Block 0</tspan></text><path stroke="#000000" fill="none" transform="translate(2.5,1.1)" d="M 0 0"/></g><g><path stroke="black" stroke-dasharray="none" d="M 84 383 105 375 175 375" fill="none"/><path fill="black" stroke="black" d="" transform="translate(84,383) scale(1,1) rotate(-20.9)"/><path fill="black" stroke="black" d="M 8 0 L 0 4 L 8 8 z" transform="translate(183,379) scale(1,1) rotate(-180)"/><g><g label-idx="0" cursor="move" transform="translate(128.8, 375)"><rect fill="white" rx="3" ry="3" x="0" y="0" width="0" height="0"/><text text-anchor="middle" font-size="14pt" font-family="OpenSansCondensedLight" y="0.8em" display="none" xml:space="preserve" transform="translate(0,0)"/></g></g></g><g transform="translate(463,462)"><g><g>
<path d="M56.7,0H0v69.3h56.7V0L56.7,0z" fill="none" stroke="none" stroke-dasharray="none"/>
<rect x="2.5" y="3.2" width="51.7" height="63" fill="none"/>
<circle fill="none" cx="28.3" cy="0" r="0.1"/>
<circle fill="none" cx="42.4" cy="0" r="0.1"/>
<circle fill="none" cx="56.7" cy="17.5" r="0.1"/>
<circle fill="none" cx="56.7" cy="34.7" r="0.1"/>
<circle fill="none" cx="56.7" cy="51.8" r="0.1"/>
<circle fill="none" cx="42.4" cy="69.3" r="0.1"/>
<circle fill="none" cx="28.3" cy="69.3" r="0.1"/>
<circle fill="none" cx="14.3" cy="69.3" r="0.1"/>
<circle fill="none" cx="0" cy="51.8" r="0.1"/>
<circle fill="none" cx="0" cy="34.7" r="0.1"/>
<circle fill="none" cx="0" cy="17.5" r="0.1"/>
<circle fill="none" cx="14.3" cy="0" r="0.1"/>
</g></g><rect stroke="none" stroke-width="0" fill="#FFFFFF" x="0" y="0" width="0" height="0" transform="translate(56.6,34.6)"/><path stroke="#000000" fill="none" d=""/><text font-family="OpenSansCondensedLight" font-size="14pt" fill="black" transform="translate(56.6,34.6)"/><rect stroke-width="0" fill="none" width="51.7" height="63" transform="translate(2.5,3.2)"/><text font-family="OpenSansCondensedLight" font-size="14pt" fill="black" transform="translate(2.5,3.2)" text-anchor="middle"><tspan x="25.9" y="16.8">O(2)</tspan><tspan x="25.9" y="37.8">Private</tspan><tspan x="25.9" y="58.8">Key</tspan></text><path stroke="#000000" fill="none" transform="translate(2.5,3.2)" d="M 0 0"/></g><g><path stroke="black" stroke-dasharray="none" d="M 278 478 425 396" fill="none"/><path fill="black" stroke="black" d="" transform="translate(278,478) scale(1,1) rotate(-29.2)"/><path fill="black" stroke="black" d="M 8 0 L 0 4 L 8 8 z" transform="translate(434,395.5) scale(1,1) rotate(-209.2)"/><g><g label-idx="0" cursor="move" transform="translate(351.5, 437)"><rect fill="white" rx="3" ry="3" x="0" y="0" width="0" height="0"/><text text-anchor="middle" font-size="14pt" font-family="OpenSansCondensedLight" y="0.8em" display="none" xml:space="preserve" transform="translate(0,0)"/></g></g></g><g><path stroke="black" stroke-dasharray="none" d="M 298 222 365 222 366 376 424 376" fill="none"/><path fill="black" stroke="black" d="" transform="translate(298,222) scale(1,1) rotate(0)"/><path fill="black" stroke="black" d="M 8 0 L 0 4 L 8 8 z" transform="translate(432,380) scale(1,1) rotate(-180)"/><g><g label-idx="0" cursor="move" transform="translate(365.5, 294.5)"><rect fill="white" rx="3" ry="3" x="0" y="0" width="0" height="0"/><text text-anchor="middle" font-size="14pt" font-family="OpenSansCondensedLight" y="0.8em" display="none" xml:space="preserve" transform="translate(0,0)"/></g></g></g><g><path stroke="black" stroke-dasharray="none" d="M 549 205 610 205 611 375 674 375" fill="none"/><path fill="black" stroke="black" d="" transform="translate(549,205) scale(1,1) rotate(0)"/><path fill="black" stroke="black" d="M 8 0 L 0 4 L 8 8 z" transform="translate(682,379) scale(1,1) rotate(-180)"/><g><g label-idx="0" cursor="move" transform="translate(610.5, 291)"><rect fill="white" rx="3" ry="3" x="0" y="0" width="0" height="0"/><text text-anchor="middle" font-size="14pt" font-family="OpenSansCondensedLight" y="0.8em" display="none" xml:space="preserve" transform="translate(0,0)"/></g></g></g><g><path stroke="black" stroke-dasharray="none" d="M 520 479 675 398" fill="none"/><path fill="black" stroke="black" d="" transform="translate(520,479) scale(1,1) rotate(-27.7)"/><path fill="black" stroke="black" d="M 8 0 L 0 4 L 8 8 z" transform="translate(683.9,397.5) scale(1,1) rotate(-207.7)"/><g><g label-idx="0" cursor="move" transform="translate(597.5, 438.5)"><rect fill="white" rx="3" ry="3" x="0" y="0" width="0" height="0"/><text text-anchor="middle" font-size="14pt" font-family="OpenSansCondensedLight" y="0.8em" display="none" xml:space="preserve" transform="translate(0,0)"/></g></g></g><g><path stroke="black" stroke-dasharray="none" d="M 229 235 229 269" fill="none"/><path fill="black" stroke="black" d="" transform="translate(229,235) scale(1,1) rotate(-270)"/><path fill="black" stroke="black" d="M 8 0 L 0 4 L 8 8 z" transform="translate(225,277) scale(1,1) rotate(-90)"/><g><g label-idx="0" cursor="move" transform="translate(229, 252)"><rect fill="white" rx="3" ry="3" x="0" y="0" width="0" height="0"/><text text-anchor="middle" font-size="14pt" font-family="OpenSansCondensedLight" y="0.8em" display="none" xml:space="preserve" transform="translate(0,0)"/></g></g></g><g><path stroke="black" stroke-dasharray="none" d="M 84 234 84 287 189 287" fill="none"/><path fill="black" stroke="black" d="" transform="translate(84,234) scale(1,1) rotate(-270)"/><path fill="black" stroke="black" d="M 8 0 L 0 4 L 8 8 z" transform="translate(197,291) scale(1,1) rotate(-180)"/><g><g label-idx="0" cursor="move" transform="translate(110, 287)"><rect fill="white" rx="3" ry="3" x="0" y="0" width="0" height="0"/><text text-anchor="middle" font-size="14pt" font-family="OpenSansCondensedLight" y="0.8em" display="none" xml:space="preserve" transform="translate(0,0)"/></g></g></g><g><path stroke="black" stroke-dasharray="none" d="M 212 306 212 339" fill="none"/><path fill="black" stroke="black" d="" transform="translate(212,306) scale(1,1) rotate(-270)"/><path fill="black" stroke="black" d="M 8 0 L 0 4 L 8 8 z" transform="translate(208,347) scale(1,1) rotate(-90)"/><g><g label-idx="0" cursor="move" transform="translate(212, 322.5)"><rect fill="white" rx="3" ry="3" x="0" y="0" width="0" height="0"/><text text-anchor="middle" font-size="14pt" font-family="OpenSansCondensedLight" y="0.8em" display="none" xml:space="preserve" transform="translate(0,0)"/></g></g></g><g><path stroke="black" stroke-dasharray="none" d="M 484 234 484 258" fill="none"/><path fill="black" stroke="black" d="" transform="translate(484,234) scale(1,1) rotate(-270)"/><path fill="black" stroke="black" d="M 8 0 L 0 4 L 8 8 z" transform="translate(480,266) scale(1,1) rotate(-90)"/><g><g label-idx="0" cursor="move" transform="translate(484, 246)"><rect fill="white" rx="3" ry="3" x="0" y="0" width="0" height="0"/><text text-anchor="middle" font-size="14pt" font-family="OpenSansCondensedLight" y="0.8em" display="none" xml:space="preserve" transform="translate(0,0)"/></g></g></g><g><path stroke="black" stroke-dasharray="none" d="M 488 295 488 342" fill="none"/><path fill="black" stroke="black" d="" transform="translate(488,295) scale(1,1) rotate(-270)"/><path fill="black" stroke="black" d="M 8 0 L 0 4 L 8 8 z" transform="translate(484,350) scale(1,1) rotate(-90)"/><g><g label-idx="0" cursor="move" transform="translate(488, 318.5)"><rect fill="white" rx="3" ry="3" x="0" y="0" width="0" height="0"/><text text-anchor="middle" font-size="14pt" font-family="OpenSansCondensedLight" y="0.8em" display="none" xml:space="preserve" transform="translate(0,0)"/></g></g></g><g><path stroke="black" stroke-dasharray="none" d="M 726 234 726 256" fill="none"/><path fill="black" stroke="black" d="" transform="translate(726,234) scale(1,1) rotate(-270)"/><path fill="black" stroke="black" d="M 8 0 L 0 4 L 8 8 z" transform="translate(722,264) scale(1,1) rotate(-90)"/><g><g label-idx="0" cursor="move" transform="translate(726, 245)"><rect fill="white" rx="3" ry="3" x="0" y="0" width="0" height="0"/><text text-anchor="middle" font-size="14pt" font-family="OpenSansCondensedLight" y="0.8em" display="none" xml:space="preserve" transform="translate(0,0)"/></g></g></g><g><path stroke="black" stroke-dasharray="none" d="M 711 293 711 344" fill="none"/><path fill="black" stroke="black" d="" transform="translate(711,293) scale(1,1) rotate(-270)"/><path fill="black" stroke="black" d="M 8 0 L 0 4 L 8 8 z" transform="translate(707,352) scale(1,1) rotate(-90)"/><g><g label-idx="0" cursor="move" transform="translate(711, 318.5)"><rect fill="white" rx="3" ry="3" x="0" y="0" width="0" height="0"/><text text-anchor="middle" font-size="14pt" font-family="OpenSansCondensedLight" y="0.8em" display="none" xml:space="preserve" transform="translate(0,0)"/></g></g></g><g><path stroke="black" stroke-dasharray="none" d="M 326 280 444 280" fill="none"/><path fill="black" stroke="black" d="" transform="translate(326,280) scale(1,1) rotate(0)"/><path fill="black" stroke="black" d="M 8 0 L 0 4 L 8 8 z" transform="translate(452,284) scale(1,1) rotate(-180)"/><g><g label-idx="0" cursor="move" transform="translate(385, 280)"><rect fill="white" rx="3" ry="3" x="0" y="0" width="0" height="0"/><text text-anchor="middle" font-size="14pt" font-family="OpenSansCondensedLight" y="0.8em" display="none" xml:space="preserve" transform="translate(0,0)"/></g></g></g><g><path stroke="black" stroke-dasharray="none" d="M 568 278 686 278" fill="none"/><path fill="black" stroke="black" d="" transform="translate(568,278) scale(1,1) rotate(0)"/><path fill="black" stroke="black" d="M 8 0 L 0 4 L 8 8 z" transform="translate(694,282) scale(1,1) rotate(-180)"/><g><g label-idx="0" cursor="move" transform="translate(627, 278)"><rect fill="white" rx="3" ry="3" x="0" y="0" width="0" height="0"/><text text-anchor="middle" font-size="14pt" font-family="OpenSansCondensedLight" y="0.8em" display="none" xml:space="preserve" transform="translate(0,0)"/></g></g></g></g><defs/></svg>