<svg xmlns="http://www.w3.org/2000/svg" xmlns:xlink="http://www.w3.org/1999/xlink" version="1.1" width="895" height="636"><g><g model-id="2765bb6f-61b4-493c-8658-fff99cfc1f8f" transform="translate(155,134)"><g><g>
<path d="M171,0H0v284h171V0L171,0z" stroke="#000000" stroke-dasharray="none" fill="#FFFFFF"></path>
<rect x="7.5" y="12.9" width="156.1" height="258.1" fill="none"></rect>
<circle fill="none" cx="85.5" cy="0" r="0.1"></circle>
<circle fill="none" cx="127.9" cy="0" r="0.1"></circle>
<circle fill="none" cx="171" cy="71.6" r="0.1"></circle>
<circle fill="none" cx="171" cy="142" r="0.1"></circle>
<circle fill="none" cx="171" cy="212.4" r="0.1"></circle>
<circle fill="none" cx="127.9" cy="284" r="0.1"></circle>
<circle fill="none" cx="85.5" cy="284" r="0.1"></circle>
<circle fill="none" cx="43.1" cy="284" r="0.1"></circle>
<circle fill="none" cx="0" cy="212.4" r="0.1"></circle>
<circle fill="none" cx="0" cy="142" r="0.1"></circle>
<circle fill="none" cx="0" cy="71.6" r="0.1"></circle>
<circle fill="none" cx="43.1" cy="0" r="0.1"></circle>
</g></g><rect stroke="none" stroke-width="0" fill="#FFFFFF" x="0" y="0" width="0" height="0" transform="translate(170.9,141.9)"></rect><path stroke="#000000" fill="none" d=""></path><text font-family="OpenSansCondensedLight" font-size="14pt" fill="black" transform="translate(170.9,141.9)"></text><rect stroke-width="0" fill="none" width="156.1" height="258.1" transform="translate(7.5,12.9)"></rect><text font-family="OpenSansCondensedLight" font-size="14pt" fill="black" transform="translate(7.5,12.9)" text-anchor="middle"><tspan x="78" y="135.3"> </tspan></text><path stroke="#000000" fill="none" transform="translate(7.5,12.9)" d="M 0 0"></path></g><g model-id="dccec8af-05a4-24bd-9d6d-59304cf8d9fd" transform="translate(397,135)"><g><g>
<path d="M171,0H0v284h171V0L171,0z" stroke="#000000" stroke-dasharray="none" fill="#FFFFFF"></path>
<rect x="7.5" y="12.9" width="156.1" height="258.1" fill="none"></rect>
<circle fill="none" cx="85.5" cy="0" r="0.1"></circle>
<circle fill="none" cx="127.9" cy="0" r="0.1"></circle>
<circle fill="none" cx="171" cy="71.6" r="0.1"></circle>
<circle fill="none" cx="171" cy="142" r="0.1"></circle>
<circle fill="none" cx="171" cy="212.4" r="0.1"></circle>
<circle fill="none" cx="127.9" cy="284" r="0.1"></circle>
<circle fill="none" cx="85.5" cy="284" r="0.1"></circle>
<circle fill="none" cx="43.1" cy="284" r="0.1"></circle>
<circle fill="none" cx="0" cy="212.4" r="0.1"></circle>
<circle fill="none" cx="0" cy="142" r="0.1"></circle>
<circle fill="none" cx="0" cy="71.6" r="0.1"></circle>
<circle fill="none" cx="43.1" cy="0" r="0.1"></circle>
</g></g><rect stroke="none" stroke-width="0" fill="#FFFFFF" x="0" y="0" width="0" height="0" transform="translate(170.9,141.9)"></rect><path stroke="#000000" fill="none" d=""></path><text font-family="OpenSansCondensedLight" font-size="14pt" fill="black" transform="translate(170.9,141.9)"></text><rect stroke-width="0" fill="none" width="156.1" height="258.1" transform="translate(7.5,12.9)"></rect><text font-family="OpenSansCondensedLight" font-size="14pt" fill="black" transform="translate(7.5,12.9)" text-anchor="middle"><tspan x="78" y="135.3"> </tspan></text><path stroke="#000000" fill="none" transform="translate(7.5,12.9)" d="M 0 0"></path></g><g model-id="3e5e8c85-17a0-4369-8e7d-baf93e744c2b" transform="translate(603.3,17.9)"><polygon fill="#000000" points="0,0 4.2,11.2 11.8,2" transform="translate(-5.9,27.3)"></polygon>
<rect fill="none" width="1" height="1" transform="translate(33.3,-0.5)"></rect>
<g><g>
<rect x="0" y="0" width="28.3" height="28.3" opacity="0"></rect>
<path fill="none" stroke="#000000" stroke-width="1" d="M28.3,0C16.7,2.2,7,13.4,0,28.3"></path>
</g></g><rect stroke="none" stroke-width="0" fill="#FFFFFF" x="0" y="0" width="0" height="0"></rect><path stroke="#000000" fill="none"></path><text font-family="OpenSansCondensedLight" font-size="14pt" fill="black" transform="translate(0,0)"></text><rect stroke-width="0" fill="none" width="1" height="1" transform="translate(33.3,-0.5)"></rect><text font-family="OpenSansCondensedLight" font-size="14pt" fill="black" text-decoration="none" transform="translate(33.3,-0.5)"><tspan x="0" y="6.8">300</tspan></text><path stroke="#000000" fill="none" transform="translate(33.3,-0.5)"></path></g><g model-id="ab5cb481-786f-32a5-9e47-067aea2121ce" transform="translate(648,134)"><g><g>
<path d="M171,0H0v284h171V0L171,0z" stroke="#000000" stroke-dasharray="none" fill="#FFFFFF"></path>
<rect x="7.5" y="12.9" width="156.1" height="258.1" fill="none"></rect>
<circle fill="none" cx="85.5" cy="0" r="0.1"></circle>
<circle fill="none" cx="127.9" cy="0" r="0.1"></circle>
<circle fill="none" cx="171" cy="71.6" r="0.1"></circle>
<circle fill="none" cx="171" cy="142" r="0.1"></circle>
<circle fill="none" cx="171" cy="212.4" r="0.1"></circle>
<circle fill="none" cx="127.9" cy="284" r="0.1"></circle>
<circle fill="none" cx="85.5" cy="284" r="0.1"></circle>
<circle fill="none" cx="43.1" cy="284" r="0.1"></circle>
<circle fill="none" cx="0" cy="212.4" r="0.1"></circle>
<circle fill="none" cx="0" cy="142" r="0.1"></circle>
<circle fill="none" cx="0" cy="71.6" r="0.1"></circle>
<circle fill="none" cx="43.1" cy="0" r="0.1"></circle>
</g></g><rect stroke="none" stroke-width="0" fill="#FFFFFF" x="0" y="0" width="0" height="0" transform="translate(170.9,141.9)"></rect><path stroke="#000000" fill="none" d=""></path><text font-family="OpenSansCondensedLight" font-size="14pt" fill="black" transform="translate(170.9,141.9)"></text><rect stroke-width="0" fill="none" width="156.1" height="258.1" transform="translate(7.5,12.9)"></rect><text font-family="OpenSansCondensedLight" font-size="14pt" fill="black" transform="translate(7.5,12.9)" text-anchor="middle"><tspan x="78" y="135.3"> </tspan></text><path stroke="#000000" fill="none" transform="translate(7.5,12.9)" d="M 0 0"></path></g><g model-id="32314c43-61a4-43ff-9ec3-23a5d224ddde" transform="translate(169,139)"><g><g>
<path d="M142.7,0H0v30.7h142.7V0L142.7,0z" stroke="#000000" stroke-dasharray="none" fill="#FFFFFF"></path>
<rect x="6.2" y="1.4" width="130.2" height="27.9" fill="none"></rect>
<circle fill="none" cx="71.3" cy="0" r="0.1"></circle>
<circle fill="none" cx="106.7" cy="0" r="0.1"></circle>
<circle fill="none" cx="142.7" cy="7.7" r="0.1"></circle>
<circle fill="none" cx="142.7" cy="15.3" r="0.1"></circle>
<circle fill="none" cx="142.7" cy="22.9" r="0.1"></circle>
<circle fill="none" cx="106.7" cy="30.7" r="0.1"></circle>
<circle fill="none" cx="71.3" cy="30.7" r="0.1"></circle>
<circle fill="none" cx="36" cy="30.7" r="0.1"></circle>
<circle fill="none" cx="0" cy="22.9" r="0.1"></circle>
<circle fill="none" cx="0" cy="15.3" r="0.1"></circle>
<circle fill="none" cx="0" cy="7.7" r="0.1"></circle>
<circle fill="none" cx="36" cy="0" r="0.1"></circle>
</g></g><rect stroke="none" stroke-width="0" fill="#FFFFFF" x="0" y="0" width="0" height="0" transform="translate(142.6,15.2)"></rect><path stroke="#000000" fill="none" d=""></path><text font-family="OpenSansCondensedLight" font-size="14pt" fill="black" transform="translate(142.6,15.2)"></text><rect stroke-width="0" fill="none" width="130.2" height="27.9" transform="translate(6.2,1.4)"></rect><text font-family="OpenSansCondensedLight" font-size="14pt" fill="black" transform="translate(6.2,1.4)" text-anchor="middle"><tspan x="65.1" y="9.7">TRANSACTION</tspan><tspan x="65.1" y="30.7">1 302</tspan></text><path stroke="#000000" fill="none" transform="translate(6.2,1.4)" d="M 58.1 33 86.1 33"></path></g><g model-id="242e3a7e-5220-1ea9-c817-32942781a1af" transform="translate(412,141)"><g><g>
<path d="M142.7,0H0v30.7h142.7V0L142.7,0z" stroke="#000000" stroke-dasharray="none" fill="#FFFFFF"></path>
<rect x="6.2" y="1.4" width="130.2" height="27.9" fill="none"></rect>
<circle fill="none" cx="71.3" cy="0" r="0.1"></circle>
<circle fill="none" cx="106.7" cy="0" r="0.1"></circle>
<circle fill="none" cx="142.7" cy="7.7" r="0.1"></circle>
<circle fill="none" cx="142.7" cy="15.3" r="0.1"></circle>
<circle fill="none" cx="142.7" cy="22.9" r="0.1"></circle>
<circle fill="none" cx="106.7" cy="30.7" r="0.1"></circle>
<circle fill="none" cx="71.3" cy="30.7" r="0.1"></circle>
<circle fill="none" cx="36" cy="30.7" r="0.1"></circle>
<circle fill="none" cx="0" cy="22.9" r="0.1"></circle>
<circle fill="none" cx="0" cy="15.3" r="0.1"></circle>
<circle fill="none" cx="0" cy="7.7" r="0.1"></circle>
<circle fill="none" cx="36" cy="0" r="0.1"></circle>
</g></g><rect stroke="none" stroke-width="0" fill="#FFFFFF" x="0" y="0" width="0" height="0" transform="translate(142.6,15.2)"></rect><path stroke="#000000" fill="none" d=""></path><text font-family="OpenSansCondensedLight" font-size="14pt" fill="black" transform="translate(142.6,15.2)"></text><rect stroke-width="0" fill="none" width="130.2" height="27.9" transform="translate(6.2,1.4)"></rect><text font-family="OpenSansCondensedLight" font-size="14pt" fill="black" transform="translate(6.2,1.4)" text-anchor="middle"><tspan x="65.1" y="9.7">TRANSACTION</tspan><tspan x="65.1" y="30.7">2 304</tspan></text><path stroke="#000000" fill="none" transform="translate(6.2,1.4)" d="M 58.1 33 86.1 33"></path></g><g model-id="d67cb89d-20c7-e7ba-3e92-dadd1e340f9a" transform="translate(197,277)"><g><g>
<path d="M64,0H0v29h64V0L64,0z" stroke="#000000" stroke-dasharray="none" fill="#FFFFFF"></path>
<rect x="2.8" y="1.3" width="58.4" height="26.4" fill="none"></rect>
<circle fill="none" cx="32" cy="0" r="0.1"></circle>
<circle fill="none" cx="47.9" cy="0" r="0.1"></circle>
<circle fill="none" cx="64" cy="7.3" r="0.1"></circle>
<circle fill="none" cx="64" cy="14.5" r="0.1"></circle>
<circle fill="none" cx="64" cy="21.7" r="0.1"></circle>
<circle fill="none" cx="47.9" cy="29" r="0.1"></circle>
<circle fill="none" cx="32" cy="29" r="0.1"></circle>
<circle fill="none" cx="16.1" cy="29" r="0.1"></circle>
<circle fill="none" cx="0" cy="21.7" r="0.1"></circle>
<circle fill="none" cx="0" cy="14.5" r="0.1"></circle>
<circle fill="none" cx="0" cy="7.3" r="0.1"></circle>
<circle fill="none" cx="16.1" cy="0" r="0.1"></circle>
</g></g><rect stroke="none" stroke-width="0" fill="#FFFFFF" x="0" y="0" width="0" height="0" transform="translate(63.9,14.4)"></rect><path stroke="#000000" fill="none" d=""></path><text font-family="OpenSansCondensedLight" font-size="14pt" fill="black" transform="translate(63.9,14.4)"></text><rect stroke-width="0" fill="none" width="58.4" height="26.4" transform="translate(2.8,1.3)"></rect><text font-family="OpenSansCondensedLight" font-size="14pt" fill="black" transform="translate(2.8,1.3)" text-anchor="middle"><tspan x="29.2" y="19.5">HASH</tspan></text><path stroke="#000000" fill="none" transform="translate(2.8,1.3)" d="M 0 0"></path></g><g model-id="bf53c04a-2386-11b9-470a-c24cb2ab2177" transform="translate(183,347)"><g><g>
<path d="M113,0H0v56h113V0L113,0z" stroke="#000000" stroke-dasharray="none" fill="#FFFFFF"></path>
<rect x="4.9" y="2.6" width="103.1" height="50.9" fill="none"></rect>
<circle fill="none" cx="56.5" cy="0" r="0.1"></circle>
<circle fill="none" cx="84.5" cy="0" r="0.1"></circle>
<circle fill="none" cx="113" cy="14.1" r="0.1"></circle>
<circle fill="none" cx="113" cy="28" r="0.1"></circle>
<circle fill="none" cx="113" cy="41.9" r="0.1"></circle>
<circle fill="none" cx="84.5" cy="56" r="0.1"></circle>
<circle fill="none" cx="56.5" cy="56" r="0.1"></circle>
<circle fill="none" cx="28.5" cy="56" r="0.1"></circle>
<circle fill="none" cx="0" cy="41.9" r="0.1"></circle>
<circle fill="none" cx="0" cy="28" r="0.1"></circle>
<circle fill="none" cx="0" cy="14.1" r="0.1"></circle>
<circle fill="none" cx="28.5" cy="0" r="0.1"></circle>
</g></g><rect stroke="none" stroke-width="0" fill="#FFFFFF" x="0" y="0" width="0" height="0" transform="translate(112.9,27.9)"></rect><path stroke="#000000" fill="none" d=""></path><text font-family="OpenSansCondensedLight" font-size="14pt" fill="black" transform="translate(112.9,27.9)"></text><rect stroke-width="0" fill="none" width="103.1" height="50.9" transform="translate(4.9,2.6)"></rect><text font-family="OpenSansCondensedLight" font-size="14pt" fill="black" transform="translate(4.9,2.6)" text-anchor="middle"><tspan x="51.6" y="10.7">O(0)</tspan><tspan x="51.6" y="31.7">SIGNATURE</tspan><tspan x="51.6" y="52.7">314</tspan></text><path stroke="#000000" fill="none" transform="translate(4.9,2.6)" d="M 37.6 55 65.6 55"></path></g><g model-id="27f41c4b-3f8a-9814-b300-62d719d0e137" transform="translate(163,177)"><g><g>
<path d="M135,0H0v58h135V0L135,0z" stroke="#000000" stroke-dasharray="none" fill="#FFFFFF"></path>
<rect x="5.9" y="2.6" width="123.2" height="52.7" fill="none"></rect>
<circle fill="none" cx="67.5" cy="0" r="0.1"></circle>
<circle fill="none" cx="101" cy="0" r="0.1"></circle>
<circle fill="none" cx="135" cy="14.6" r="0.1"></circle>
<circle fill="none" cx="135" cy="29" r="0.1"></circle>
<circle fill="none" cx="135" cy="43.4" r="0.1"></circle>
<circle fill="none" cx="101" cy="58" r="0.1"></circle>
<circle fill="none" cx="67.5" cy="58" r="0.1"></circle>
<circle fill="none" cx="34.1" cy="58" r="0.1"></circle>
<circle fill="none" cx="0" cy="43.4" r="0.1"></circle>
<circle fill="none" cx="0" cy="29" r="0.1"></circle>
<circle fill="none" cx="0" cy="14.6" r="0.1"></circle>
<circle fill="none" cx="34.1" cy="0" r="0.1"></circle>
</g></g><rect stroke="none" stroke-width="0" fill="#FFFFFF" x="0" y="0" width="0" height="0" transform="translate(134.9,28.9)"></rect><path stroke="#000000" fill="none" d=""></path><text font-family="OpenSansCondensedLight" font-size="14pt" fill="black" transform="translate(134.9,28.9)"></text><rect stroke-width="0" fill="none" width="123.2" height="52.7" transform="translate(5.9,2.6)"></rect><text font-family="OpenSansCondensedLight" font-size="14pt" fill="black" transform="translate(5.9,2.6)" text-anchor="middle"><tspan x="61.6" y="22.2">O(1) PUBLIC</tspan><tspan x="61.6" y="43.2">KEY 308</tspan></text><path stroke="#000000" fill="none" transform="translate(5.9,2.6)" d="M 69.1 45 97.1 45"></path></g><g model-id="92c50440-447a-25b0-c632-eb3030a2a079" transform="translate(452,266)"><g><g>
<path d="M64,0H0v29h64V0L64,0z" stroke="#000000" stroke-dasharray="none" fill="#FFFFFF"></path>
<rect x="2.8" y="1.3" width="58.4" height="26.4" fill="none"></rect>
<circle fill="none" cx="32" cy="0" r="0.1"></circle>
<circle fill="none" cx="47.9" cy="0" r="0.1"></circle>
<circle fill="none" cx="64" cy="7.3" r="0.1"></circle>
<circle fill="none" cx="64" cy="14.5" r="0.1"></circle>
<circle fill="none" cx="64" cy="21.7" r="0.1"></circle>
<circle fill="none" cx="47.9" cy="29" r="0.1"></circle>
<circle fill="none" cx="32" cy="29" r="0.1"></circle>
<circle fill="none" cx="16.1" cy="29" r="0.1"></circle>
<circle fill="none" cx="0" cy="21.7" r="0.1"></circle>
<circle fill="none" cx="0" cy="14.5" r="0.1"></circle>
<circle fill="none" cx="0" cy="7.3" r="0.1"></circle>
<circle fill="none" cx="16.1" cy="0" r="0.1"></circle>
</g></g><rect stroke="none" stroke-width="0" fill="#FFFFFF" x="0" y="0" width="0" height="0" transform="translate(63.9,14.4)"></rect><path stroke="#000000" fill="none" d=""></path><text font-family="OpenSansCondensedLight" font-size="14pt" fill="black" transform="translate(63.9,14.4)"></text><rect stroke-width="0" fill="none" width="58.4" height="26.4" transform="translate(2.8,1.3)"></rect><text font-family="OpenSansCondensedLight" font-size="14pt" fill="black" transform="translate(2.8,1.3)" text-anchor="middle"><tspan x="29.2" y="19.5">HASH</tspan></text><path stroke="#000000" fill="none" transform="translate(2.8,1.3)" d="M 0 0"></path></g><g model-id="49c979e7-e893-7978-f128-9eebec3c51b8" transform="translate(663,141)"><g><g>
<path d="M142.7,0H0v30.7h142.7V0L142.7,0z" stroke="#000000" stroke-dasharray="none" fill="#FFFFFF"></path>
<rect x="6.2" y="1.4" width="130.2" height="27.9" fill="none"></rect>
<circle fill="none" cx="71.3" cy="0" r="0.1"></circle>
<circle fill="none" cx="106.7" cy="0" r="0.1"></circle>
<circle fill="none" cx="142.7" cy="7.7" r="0.1"></circle>
<circle fill="none" cx="142.7" cy="15.3" r="0.1"></circle>
<circle fill="none" cx="142.7" cy="22.9" r="0.1"></circle>
<circle fill="none" cx="106.7" cy="30.7" r="0.1"></circle>
<circle fill="none" cx="71.3" cy="30.7" r="0.1"></circle>
<circle fill="none" cx="36" cy="30.7" r="0.1"></circle>
<circle fill="none" cx="0" cy="22.9" r="0.1"></circle>
<circle fill="none" cx="0" cy="15.3" r="0.1"></circle>
<circle fill="none" cx="0" cy="7.7" r="0.1"></circle>
<circle fill="none" cx="36" cy="0" r="0.1"></circle>
</g></g><rect stroke="none" stroke-width="0" fill="#FFFFFF" x="0" y="0" width="0" height="0" transform="translate(142.6,15.2)"></rect><path stroke="#000000" fill="none" d=""></path><text font-family="OpenSansCondensedLight" font-size="14pt" fill="black" transform="translate(142.6,15.2)"></text><rect stroke-width="0" fill="none" width="130.2" height="27.9" transform="translate(6.2,1.4)"></rect><text font-family="OpenSansCondensedLight" font-size="14pt" fill="black" transform="translate(6.2,1.4)" text-anchor="middle"><tspan x="65.1" y="9.7">TRANSACTION</tspan><tspan x="65.1" y="30.7">3 306</tspan></text><path stroke="#000000" fill="none" transform="translate(6.2,1.4)" d="M 58.1 33 86.1 33"></path></g><g model-id="f791bcf7-83f9-4e89-a3e6-412253bc373e" transform="translate(694,264)"><g><g>
<path d="M64,0H0v29h64V0L64,0z" stroke="#000000" stroke-dasharray="none" fill="#FFFFFF"></path>
<rect x="2.8" y="1.3" width="58.4" height="26.4" fill="none"></rect>
<circle fill="none" cx="32" cy="0" r="0.1"></circle>
<circle fill="none" cx="47.9" cy="0" r="0.1"></circle>
<circle fill="none" cx="64" cy="7.3" r="0.1"></circle>
<circle fill="none" cx="64" cy="14.5" r="0.1"></circle>
<circle fill="none" cx="64" cy="21.7" r="0.1"></circle>
<circle fill="none" cx="47.9" cy="29" r="0.1"></circle>
<circle fill="none" cx="32" cy="29" r="0.1"></circle>
<circle fill="none" cx="16.1" cy="29" r="0.1"></circle>
<circle fill="none" cx="0" cy="21.7" r="0.1"></circle>
<circle fill="none" cx="0" cy="14.5" r="0.1"></circle>
<circle fill="none" cx="0" cy="7.3" r="0.1"></circle>
<circle fill="none" cx="16.1" cy="0" r="0.1"></circle>
</g></g><rect stroke="none" stroke-width="0" fill="#FFFFFF" x="0" y="0" width="0" height="0" transform="translate(63.9,14.4)"></rect><path stroke="#000000" fill="none" d=""></path><text font-family="OpenSansCondensedLight" font-size="14pt" fill="black" transform="translate(63.9,14.4)"></text><rect stroke-width="0" fill="none" width="58.4" height="26.4" transform="translate(2.8,1.3)"></rect><text font-family="OpenSansCondensedLight" font-size="14pt" fill="black" transform="translate(2.8,1.3)" text-anchor="middle"><tspan x="29.2" y="19.5">HASH</tspan></text><path stroke="#000000" fill="none" transform="translate(2.8,1.3)" d="M 0 0"></path></g><g model-id="d4175c90-e03d-4039-b933-f35307fcfd05" transform="translate(23,264)"><g><g>
<path d="M56.7,0H0v69.9h56.7V0L56.7,0z" fill="none" stroke="none" stroke-dasharray="none"></path>
<rect x="2.5" y="3.2" width="51.7" height="63.5" fill="none"></rect>
<circle fill="none" cx="28.3" cy="0" r="0.1"></circle>
<circle fill="none" cx="42.4" cy="0" r="0.1"></circle>
<circle fill="none" cx="56.7" cy="17.6" r="0.1"></circle>
<circle fill="none" cx="56.7" cy="34.9" r="0.1"></circle>
<circle fill="none" cx="56.7" cy="52.3" r="0.1"></circle>
<circle fill="none" cx="42.4" cy="69.9" r="0.1"></circle>
<circle fill="none" cx="28.3" cy="69.9" r="0.1"></circle>
<circle fill="none" cx="14.3" cy="69.9" r="0.1"></circle>
<circle fill="none" cx="0" cy="52.3" r="0.1"></circle>
<circle fill="none" cx="0" cy="34.9" r="0.1"></circle>
<circle fill="none" cx="0" cy="17.6" r="0.1"></circle>
<circle fill="none" cx="14.3" cy="0" r="0.1"></circle>
</g></g><rect stroke="none" stroke-width="0" fill="#FFFFFF" x="0" y="0" width="0" height="0" transform="translate(56.6,34.8)"></rect><path stroke="#000000" fill="none" d=""></path><text font-family="OpenSansCondensedLight" font-size="14pt" fill="black" transform="translate(56.6,34.8)"></text><rect stroke-width="0" fill="none" width="51.7" height="63.5" transform="translate(2.5,3.2)"></rect><text font-family="OpenSansCondensedLight" font-size="14pt" fill="black" transform="translate(2.5,3.2)" text-anchor="middle"><tspan x="25.9" y="17.1">O(0)</tspan><tspan x="25.9" y="38.1">Private</tspan><tspan x="25.9" y="59.1">Key</tspan></text><path stroke="#000000" fill="none" transform="translate(2.5,3.2)" d="M 0 0"></path></g><g model-id="7f90fdfb-2704-56eb-2df0-f5570f28670c" transform="translate(432,350)"><g><g>
<path d="M113,0H0v56h113V0L113,0z" stroke="#000000" stroke-dasharray="none" fill="#FFFFFF"></path>
<rect x="4.9" y="2.6" width="103.1" height="50.9" fill="none"></rect>
<circle fill="none" cx="56.5" cy="0" r="0.1"></circle>
<circle fill="none" cx="84.5" cy="0" r="0.1"></circle>
<circle fill="none" cx="113" cy="14.1" r="0.1"></circle>
<circle fill="none" cx="113" cy="28" r="0.1"></circle>
<circle fill="none" cx="113" cy="41.9" r="0.1"></circle>
<circle fill="none" cx="84.5" cy="56" r="0.1"></circle>
<circle fill="none" cx="56.5" cy="56" r="0.1"></circle>
<circle fill="none" cx="28.5" cy="56" r="0.1"></circle>
<circle fill="none" cx="0" cy="41.9" r="0.1"></circle>
<circle fill="none" cx="0" cy="28" r="0.1"></circle>
<circle fill="none" cx="0" cy="14.1" r="0.1"></circle>
<circle fill="none" cx="28.5" cy="0" r="0.1"></circle>
</g></g><rect stroke="none" stroke-width="0" fill="#FFFFFF" x="0" y="0" width="0" height="0" transform="translate(112.9,27.9)"></rect><path stroke="#000000" fill="none" d=""></path><text font-family="OpenSansCondensedLight" font-size="14pt" fill="black" transform="translate(112.9,27.9)"></text><rect stroke-width="0" fill="none" width="103.1" height="50.9" transform="translate(4.9,2.6)"></rect><text font-family="OpenSansCondensedLight" font-size="14pt" fill="black" transform="translate(4.9,2.6)" text-anchor="middle"><tspan x="51.6" y="10.7">O(1)</tspan><tspan x="51.6" y="31.7">SIGNATURE</tspan><tspan x="51.6" y="52.7">316</tspan></text><path stroke="#000000" fill="none" transform="translate(4.9,2.6)" d="M 37.6 55 65.6 55"></path></g><g model-id="af598878-c74f-3977-1aad-241b93057a24" transform="translate(414,176)"><g><g>
<path d="M135,0H0v58h135V0L135,0z" stroke="#000000" stroke-dasharray="none" fill="#FFFFFF"></path>
<rect x="5.9" y="2.6" width="123.2" height="52.7" fill="none"></rect>
<circle fill="none" cx="67.5" cy="0" r="0.1"></circle>
<circle fill="none" cx="101" cy="0" r="0.1"></circle>
<circle fill="none" cx="135" cy="14.6" r="0.1"></circle>
<circle fill="none" cx="135" cy="29" r="0.1"></circle>
<circle fill="none" cx="135" cy="43.4" r="0.1"></circle>
<circle fill="none" cx="101" cy="58" r="0.1"></circle>
<circle fill="none" cx="67.5" cy="58" r="0.1"></circle>
<circle fill="none" cx="34.1" cy="58" r="0.1"></circle>
<circle fill="none" cx="0" cy="43.4" r="0.1"></circle>
<circle fill="none" cx="0" cy="29" r="0.1"></circle>
<circle fill="none" cx="0" cy="14.6" r="0.1"></circle>
<circle fill="none" cx="34.1" cy="0" r="0.1"></circle>
</g></g><rect stroke="none" stroke-width="0" fill="#FFFFFF" x="0" y="0" width="0" height="0" transform="translate(134.9,28.9)"></rect><path stroke="#000000" fill="none" d=""></path><text font-family="OpenSansCondensedLight" font-size="14pt" fill="black" transform="translate(134.9,28.9)"></text><rect stroke-width="0" fill="none" width="123.2" height="52.7" transform="translate(5.9,2.6)"></rect><text font-family="OpenSansCondensedLight" font-size="14pt" fill="black" transform="translate(5.9,2.6)" text-anchor="middle"><tspan x="61.6" y="22.2">O(2) PUBLIC</tspan><tspan x="61.6" y="43.2">KEY 310</tspan></text><path stroke="#000000" fill="none" transform="translate(5.9,2.6)" d="M 69.1 45 97.1 45"></path></g><g model-id="ab79ecea-0788-7344-2871-c59333abf5cd" transform="translate(221,461)"><g><g>
<path d="M56.7,0H0v69.3h56.7V0L56.7,0z" fill="none" stroke="none" stroke-dasharray="none"></path>
<rect x="2.5" y="3.2" width="51.7" height="63" fill="none"></rect>
<circle fill="none" cx="28.3" cy="0" r="0.1"></circle>
<circle fill="none" cx="42.4" cy="0" r="0.1"></circle>
<circle fill="none" cx="56.7" cy="17.5" r="0.1"></circle>
<circle fill="none" cx="56.7" cy="34.7" r="0.1"></circle>
<circle fill="none" cx="56.7" cy="51.8" r="0.1"></circle>
<circle fill="none" cx="42.4" cy="69.3" r="0.1"></circle>
<circle fill="none" cx="28.3" cy="69.3" r="0.1"></circle>
<circle fill="none" cx="14.3" cy="69.3" r="0.1"></circle>
<circle fill="none" cx="0" cy="51.8" r="0.1"></circle>
<circle fill="none" cx="0" cy="34.7" r="0.1"></circle>
<circle fill="none" cx="0" cy="17.5" r="0.1"></circle>
<circle fill="none" cx="14.3" cy="0" r="0.1"></circle>
</g></g><rect stroke="none" stroke-width="0" fill="#FFFFFF" x="0" y="0" width="0" height="0" transform="translate(56.6,34.6)"></rect><path stroke="#000000" fill="none" d=""></path><text font-family="OpenSansCondensedLight" font-size="14pt" fill="black" transform="translate(56.6,34.6)"></text><rect stroke-width="0" fill="none" width="51.7" height="63" transform="translate(2.5,3.2)"></rect><text font-family="OpenSansCondensedLight" font-size="14pt" fill="black" transform="translate(2.5,3.2)" text-anchor="middle"><tspan x="25.9" y="16.8">O(1)</tspan><tspan x="25.9" y="37.8">Private</tspan><tspan x="25.9" y="58.8">Key</tspan></text><path stroke="#000000" fill="none" transform="translate(2.5,3.2)" d="M 0 0"></path></g><g model-id="e1d5fa16-e314-4eef-87e9-cf29555e50c6"><path stroke="black" stroke-dasharray="none" d="M 65 334 94 358 175 358"></path><path fill="black" stroke="black" d="" transform="translate(65,334) scale(1,1) rotate(39.6)"></path><path fill="black" stroke="black" d="M 8 0 L 0 4 L 8 8 z" transform="translate(183,362) scale(1,1) rotate(-180)"></path><g><g label-idx="0" cursor="move" transform="translate(115.7, 358)"><rect fill="white" rx="3" ry="3" x="0" y="0" width="0" height="0"></rect><text text-anchor="middle" font-size="14pt" font-family="OpenSansCondensedLight" y="0.8em" display="none" xml:space="preserve" transform="translate(0,0)"></text></g></g></g><g model-id="ebe12967-11e1-7aa1-51ca-41f92b204538" transform="translate(661,176)"><g><g>
<path d="M135,0H0v58h135V0L135,0z" stroke="#000000" stroke-dasharray="none" fill="#FFFFFF"></path>
<rect x="5.9" y="2.6" width="123.2" height="52.7" fill="none"></rect>
<circle fill="none" cx="67.5" cy="0" r="0.1"></circle>
<circle fill="none" cx="101" cy="0" r="0.1"></circle>
<circle fill="none" cx="135" cy="14.6" r="0.1"></circle>
<circle fill="none" cx="135" cy="29" r="0.1"></circle>
<circle fill="none" cx="135" cy="43.4" r="0.1"></circle>
<circle fill="none" cx="101" cy="58" r="0.1"></circle>
<circle fill="none" cx="67.5" cy="58" r="0.1"></circle>
<circle fill="none" cx="34.1" cy="58" r="0.1"></circle>
<circle fill="none" cx="0" cy="43.4" r="0.1"></circle>
<circle fill="none" cx="0" cy="29" r="0.1"></circle>
<circle fill="none" cx="0" cy="14.6" r="0.1"></circle>
<circle fill="none" cx="34.1" cy="0" r="0.1"></circle>
</g></g><rect stroke="none" stroke-width="0" fill="#FFFFFF" x="0" y="0" width="0" height="0" transform="translate(134.9,28.9)"></rect><path stroke="#000000" fill="none" d=""></path><text font-family="OpenSansCondensedLight" font-size="14pt" fill="black" transform="translate(134.9,28.9)"></text><rect stroke-width="0" fill="none" width="123.2" height="52.7" transform="translate(5.9,2.6)"></rect><text font-family="OpenSansCondensedLight" font-size="14pt" fill="black" transform="translate(5.9,2.6)" text-anchor="middle"><tspan x="61.6" y="22.2">O(3) PUBLIC</tspan><tspan x="61.6" y="43.2">KEY 312</tspan></text><path stroke="#000000" fill="none" transform="translate(5.9,2.6)" d="M 69.1 45 97.1 45"></path></g><g model-id="22f2c95a-58e0-31bf-e54a-91e5290111d2" transform="translate(23,365)"><g><g>
<path d="M61,0H0v69.6h61V0L61,0z" fill="none" stroke="none" stroke-dasharray="none"></path>
<rect x="2.7" y="3.2" width="55.7" height="63.3" fill="none"></rect>
<circle fill="none" cx="30.5" cy="0" r="0.1"></circle>
<circle fill="none" cx="45.7" cy="0" r="0.1"></circle>
<circle fill="none" cx="61" cy="17.6" r="0.1"></circle>
<circle fill="none" cx="61" cy="34.8" r="0.1"></circle>
<circle fill="none" cx="61" cy="52.1" r="0.1"></circle>
<circle fill="none" cx="45.7" cy="69.6" r="0.1"></circle>
<circle fill="none" cx="30.5" cy="69.6" r="0.1"></circle>
<circle fill="none" cx="15.4" cy="69.6" r="0.1"></circle>
<circle fill="none" cx="0" cy="52.1" r="0.1"></circle>
<circle fill="none" cx="0" cy="34.8" r="0.1"></circle>
<circle fill="none" cx="0" cy="17.6" r="0.1"></circle>
<circle fill="none" cx="15.4" cy="0" r="0.1"></circle>
</g></g><rect stroke="none" stroke-width="0" fill="#FFFFFF" x="0" y="0" width="0" height="0" transform="translate(60.9,34.7)"></rect><path stroke="#000000" fill="none" d=""></path><text font-family="OpenSansCondensedLight" font-size="14pt" fill="black" transform="translate(60.9,34.7)"></text><rect stroke-width="0" fill="none" width="55.7" height="63.3" transform="translate(2.7,3.2)"></rect><text font-family="OpenSansCondensedLight" font-size="14pt" fill="black" transform="translate(2.7,3.2)" text-anchor="middle"><tspan x="27.9" y="16.9">O(0)</tspan><tspan x="27.9" y="37.9">Public</tspan><tspan x="27.9" y="58.9">Key</tspan></text><path stroke="#000000" fill="none" transform="translate(2.7,3.2)" d="M 0 0"></path></g><g model-id="e08f0ad9-124d-5e22-d53c-79bcd8cfdc87" transform="translate(682,352)"><g><g>
<path d="M113,0H0v56h113V0L113,0z" stroke="#000000" stroke-dasharray="none" fill="#FFFFFF"></path>
<rect x="4.9" y="2.6" width="103.1" height="50.9" fill="none"></rect>
<circle fill="none" cx="56.5" cy="0" r="0.1"></circle>
<circle fill="none" cx="84.5" cy="0" r="0.1"></circle>
<circle fill="none" cx="113" cy="14.1" r="0.1"></circle>
<circle fill="none" cx="113" cy="28" r="0.1"></circle>
<circle fill="none" cx="113" cy="41.9" r="0.1"></circle>
<circle fill="none" cx="84.5" cy="56" r="0.1"></circle>
<circle fill="none" cx="56.5" cy="56" r="0.1"></circle>
<circle fill="none" cx="28.5" cy="56" r="0.1"></circle>
<circle fill="none" cx="0" cy="41.9" r="0.1"></circle>
<circle fill="none" cx="0" cy="28" r="0.1"></circle>
<circle fill="none" cx="0" cy="14.1" r="0.1"></circle>
<circle fill="none" cx="28.5" cy="0" r="0.1"></circle>
</g></g><rect stroke="none" stroke-width="0" fill="#FFFFFF" x="0" y="0" width="0" height="0" transform="translate(112.9,27.9)"></rect><path stroke="#000000" fill="none" d=""></path><text font-family="OpenSansCondensedLight" font-size="14pt" fill="black" transform="translate(112.9,27.9)"></text><rect stroke-width="0" fill="none" width="103.1" height="50.9" transform="translate(4.9,2.6)"></rect><text font-family="OpenSansCondensedLight" font-size="14pt" fill="black" transform="translate(4.9,2.6)" text-anchor="middle"><tspan x="51.6" y="10.7">O(2)</tspan><tspan x="51.6" y="31.7">SIGNATURE</tspan><tspan x="51.6" y="52.7">318</tspan></text><path stroke="#000000" fill="none" transform="translate(4.9,2.6)" d="M 37.6 55 65.6 55"></path></g><g model-id="37a6ca20-818e-5fba-8203-11bd9fdcbe32" transform="translate(42,210)"><g><g>
<path d="M56.7,0H0v24.2h56.7V0L56.7,0z" fill="none" stroke="none" stroke-dasharray="none"></path>
<rect x="2.5" y="1.1" width="51.7" height="22" fill="none"></rect>
<circle fill="none" cx="28.3" cy="0" r="0.1"></circle>
<circle fill="none" cx="42.4" cy="0" r="0.1"></circle>
<circle fill="none" cx="56.7" cy="6.1" r="0.1"></circle>
<circle fill="none" cx="56.7" cy="12.1" r="0.1"></circle>
<circle fill="none" cx="56.7" cy="18.1" r="0.1"></circle>
<circle fill="none" cx="42.4" cy="24.2" r="0.1"></circle>
<circle fill="none" cx="28.3" cy="24.2" r="0.1"></circle>
<circle fill="none" cx="14.3" cy="24.2" r="0.1"></circle>
<circle fill="none" cx="0" cy="18.1" r="0.1"></circle>
<circle fill="none" cx="0" cy="12.1" r="0.1"></circle>
<circle fill="none" cx="0" cy="6.1" r="0.1"></circle>
<circle fill="none" cx="14.3" cy="0" r="0.1"></circle>
</g></g><rect stroke="none" stroke-width="0" fill="#FFFFFF" x="0" y="0" width="0" height="0" transform="translate(56.6,12)"></rect><path stroke="#000000" fill="none" d=""></path><text font-family="OpenSansCondensedLight" font-size="14pt" fill="black" transform="translate(56.6,12)"></text><rect stroke-width="0" fill="none" width="51.7" height="22" transform="translate(2.5,1.1)"></rect><text font-family="OpenSansCondensedLight" font-size="14pt" fill="black" transform="translate(2.5,1.1)" text-anchor="middle"><tspan x="25.9" y="17.3">Block 0</tspan></text><path stroke="#000000" fill="none" transform="translate(2.5,1.1)" d="M 0 0"></path></g><g model-id="0c1b31db-5a76-359e-a946-4ff3ee9a9e34" transform="translate(463,462)"><g><g>
<path d="M56.7,0H0v69.3h56.7V0L56.7,0z" fill="none" stroke="none" stroke-dasharray="none"></path>
<rect x="2.5" y="3.2" width="51.7" height="63" fill="none"></rect>
<circle fill="none" cx="28.3" cy="0" r="0.1"></circle>
<circle fill="none" cx="42.4" cy="0" r="0.1"></circle>
<circle fill="none" cx="56.7" cy="17.5" r="0.1"></circle>
<circle fill="none" cx="56.7" cy="34.7" r="0.1"></circle>
<circle fill="none" cx="56.7" cy="51.8" r="0.1"></circle>
<circle fill="none" cx="42.4" cy="69.3" r="0.1"></circle>
<circle fill="none" cx="28.3" cy="69.3" r="0.1"></circle>
<circle fill="none" cx="14.3" cy="69.3" r="0.1"></circle>
<circle fill="none" cx="0" cy="51.8" r="0.1"></circle>
<circle fill="none" cx="0" cy="34.7" r="0.1"></circle>
<circle fill="none" cx="0" cy="17.5" r="0.1"></circle>
<circle fill="none" cx="14.3" cy="0" r="0.1"></circle>
</g></g><rect stroke="none" stroke-width="0" fill="#FFFFFF" x="0" y="0" width="0" height="0" transform="translate(56.6,34.6)"></rect><path stroke="#000000" fill="none" d=""></path><text font-family="OpenSansCondensedLight" font-size="14pt" fill="black" transform="translate(56.6,34.6)"></text><rect stroke-width="0" fill="none" width="51.7" height="63" transform="translate(2.5,3.2)"></rect><text font-family="OpenSansCondensedLight" font-size="14pt" fill="black" transform="translate(2.5,3.2)" text-anchor="middle"><tspan x="25.9" y="16.8">O(2)</tspan><tspan x="25.9" y="37.8">Private</tspan><tspan x="25.9" y="58.8">Key</tspan></text><path stroke="#000000" fill="none" transform="translate(2.5,3.2)" d="M 0 0"></path></g><g model-id="ccf24249-6f00-4735-b8ad-07e6abe3e36c"><path stroke="black" stroke-dasharray="none" d="M 84 383 105 375 175 375"></path><path fill="black" stroke="black" d="" transform="translate(84,383) scale(1,1) rotate(-20.9)"></path><path fill="black" stroke="black" d="M 8 0 L 0 4 L 8 8 z" transform="translate(183,379) scale(1,1) rotate(-180)"></path><g><g label-idx="0" cursor="move" transform="translate(128.8, 375)"><rect fill="white" rx="3" ry="3" x="0" y="0" width="0" height="0"></rect><text text-anchor="middle" font-size="14pt" font-family="OpenSansCondensedLight" y="0.8em" display="none" xml:space="preserve" transform="translate(0,0)"></text></g></g></g><g model-id="d7190cab-0551-4736-a867-6fe30190bc7b"><path stroke="black" stroke-dasharray="none" d="M 278 478 425 396"></path><path fill="black" stroke="black" d="" transform="translate(278,478) scale(1,1) rotate(-29.2)"></path><path fill="black" stroke="black" d="M 8 0 L 0 4 L 8 8 z" transform="translate(434,395.5) scale(1,1) rotate(-209.2)"></path><g><g label-idx="0" cursor="move" transform="translate(351.5, 437)"><rect fill="white" rx="3" ry="3" x="0" y="0" width="0" height="0"></rect><text text-anchor="middle" font-size="14pt" font-family="OpenSansCondensedLight" y="0.8em" display="none" xml:space="preserve" transform="translate(0,0)"></text></g></g></g><g model-id="9d9bfa45-952e-4fcc-abcb-f8a57bc55a15"><path stroke="black" stroke-dasharray="none" d="M 298 222 365 222 366 376 424 376"></path><path fill="black" stroke="black" d="" transform="translate(298,222) scale(1,1) rotate(0)"></path><path fill="black" stroke="black" d="M 8 0 L 0 4 L 8 8 z" transform="translate(432,380) scale(1,1) rotate(-180)"></path><g><g label-idx="0" cursor="move" transform="translate(365.5, 294.5)"><rect fill="white" rx="3" ry="3" x="0" y="0" width="0" height="0"></rect><text text-anchor="middle" font-size="14pt" font-family="OpenSansCondensedLight" y="0.8em" display="none" xml:space="preserve" transform="translate(0,0)"></text></g></g></g><g model-id="1e3ef3f1-9413-498b-9b27-0db2ee338e96"><path stroke="black" stroke-dasharray="none" d="M 549 205 610 205 611 375 674 375"></path><path fill="black" stroke="black" d="" transform="translate(549,205) scale(1,1) rotate(0)"></path><path fill="black" stroke="black" d="M 8 0 L 0 4 L 8 8 z" transform="translate(682,379) scale(1,1) rotate(-180)"></path><g><g label-idx="0" cursor="move" transform="translate(610.5, 291)"><rect fill="white" rx="3" ry="3" x="0" y="0" width="0" height="0"></rect><text text-anchor="middle" font-size="14pt" font-family="OpenSansCondensedLight" y="0.8em" display="none" xml:space="preserve" transform="translate(0,0)"></text></g></g></g><g model-id="eef52a6d-8731-437e-86ec-70b89d7afc14"><path stroke="black" stroke-dasharray="none" d="M 520 479 675 398"></path><path fill="black" stroke="black" d="" transform="translate(520,479) scale(1,1) rotate(-27.7)"></path><path fill="black" stroke="black" d="M 8 0 L 0 4 L 8 8 z" transform="translate(683.9,397.5) scale(1,1) rotate(-207.7)"></path><g><g label-idx="0" cursor="move" transform="translate(597.5, 438.5)"><rect fill="white" rx="3" ry="3" x="0" y="0" width="0" height="0"></rect><text text-anchor="middle" font-size="14pt" font-family="OpenSansCondensedLight" y="0.8em" display="none" xml:space="preserve" transform="translate(0,0)"></text></g></g></g><g model-id="34c2a661-6cdd-4c48-82c3-676fc1e44628"><path stroke="black" stroke-dasharray="none" d="M 229 235 229 269"></path><path fill="black" stroke="black" d="" transform="translate(229,235) scale(1,1) rotate(-270)"></path><path fill="black" stroke="black" d="M 8 0 L 0 4 L 8 8 z" transform="translate(225,277) scale(1,1) rotate(-90)"></path><g><g label-idx="0" cursor="move" transform="translate(229, 252)"><rect fill="white" rx="3" ry="3" x="0" y="0" width="0" height="0"></rect><text text-anchor="middle" font-size="14pt" font-family="OpenSansCondensedLight" y="0.8em" display="none" xml:space="preserve" transform="translate(0,0)"></text></g></g></g><g model-id="62a44e33-40a9-443e-91cb-ecb7b6be8aab"><path stroke="black" stroke-dasharray="none" d="M 84 234 84 287 189 287"></path><path fill="black" stroke="black" d="" transform="translate(84,234) scale(1,1) rotate(-270)"></path><path fill="black" stroke="black" d="M 8 0 L 0 4 L 8 8 z" transform="translate(197,291) scale(1,1) rotate(-180)"></path><g><g label-idx="0" cursor="move" transform="translate(110, 287)"><rect fill="white" rx="3" ry="3" x="0" y="0" width="0" height="0"></rect><text text-anchor="middle" font-size="14pt" font-family="OpenSansCondensedLight" y="0.8em" display="none" xml:space="preserve" transform="translate(0,0)"></text></g></g></g><g model-id="8e5090ac-5fa6-46bd-a34e-d3cc61257fab"><path stroke="black" stroke-dasharray="none" d="M 212 306 212 339"></path><path fill="black" stroke="black" d="" transform="translate(212,306) scale(1,1) rotate(-270)"></path><path fill="black" stroke="black" d="M 8 0 L 0 4 L 8 8 z" transform="translate(208,347) scale(1,1) rotate(-90)"></path><g><g label-idx="0" cursor="move" transform="translate(212, 322.5)"><rect fill="white" rx="3" ry="3" x="0" y="0" width="0" height="0"></rect><text text-anchor="middle" font-size="14pt" font-family="OpenSansCondensedLight" y="0.8em" display="none" xml:space="preserve" transform="translate(0,0)"></text></g></g></g><g model-id="53e7a002-78a0-47d1-af45-16a91d3801eb"><path stroke="black" stroke-dasharray="none" d="M 484 234 484 258"></path><path fill="black" stroke="black" d="" transform="translate(484,234) scale(1,1) rotate(-270)"></path><path fill="black" stroke="black" d="M 8 0 L 0 4 L 8 8 z" transform="translate(480,266) scale(1,1) rotate(-90)"></path><g><g label-idx="0" cursor="move" transform="translate(484, 246)"><rect fill="white" rx="3" ry="3" x="0" y="0" width="0" height="0"></rect><text text-anchor="middle" font-size="14pt" font-family="OpenSansCondensedLight" y="0.8em" display="none" xml:space="preserve" transform="translate(0,0)"></text></g></g></g><g model-id="aefd5104-cd9a-4fdc-9f73-c744307dfda3"><path stroke="black" stroke-dasharray="none" d="M 488 295 488 342"></path><path fill="black" stroke="black" d="" transform="translate(488,295) scale(1,1) rotate(-270)"></path><path fill="black" stroke="black" d="M 8 0 L 0 4 L 8 8 z" transform="translate(484,350) scale(1,1) rotate(-90)"></path><g><g label-idx="0" cursor="move" transform="translate(488, 318.5)"><rect fill="white" rx="3" ry="3" x="0" y="0" width="0" height="0"></rect><text text-anchor="middle" font-size="14pt" font-family="OpenSansCondensedLight" y="0.8em" display="none" xml:space="preserve" transform="translate(0,0)"></text></g></g></g><g model-id="aba8fe7c-d052-4bb7-b2ef-bc16ce24189d"><path stroke="black" stroke-dasharray="none" d="M 726 234 726 256"></path><path fill="black" stroke="black" d="" transform="translate(726,234) scale(1,1) rotate(-270)"></path><path fill="black" stroke="black" d="M 8 0 L 0 4 L 8 8 z" transform="translate(722,264) scale(1,1) rotate(-90)"></path><g><g label-idx="0" cursor="move" transform="translate(726, 245)"><rect fill="white" rx="3" ry="3" x="0" y="0" width="0" height="0"></rect><text text-anchor="middle" font-size="14pt" font-family="OpenSansCondensedLight" y="0.8em" display="none" xml:space="preserve" transform="translate(0,0)"></text></g></g></g><g model-id="9323bfed-7c6a-4e61-b242-c1f4702cad2c"><path stroke="black" stroke-dasharray="none" d="M 711 293 711 344"></path><path fill="black" stroke="black" d="" transform="translate(711,293) scale(1,1) rotate(-270)"></path><path fill="black" stroke="black" d="M 8 0 L 0 4 L 8 8 z" transform="translate(707,352) scale(1,1) rotate(-90)"></path><g><g label-idx="0" cursor="move" transform="translate(711, 318.5)"><rect fill="white" rx="3" ry="3" x="0" y="0" width="0" height="0"></rect><text text-anchor="middle" font-size="14pt" font-family="OpenSansCondensedLight" y="0.8em" display="none" xml:space="preserve" transform="translate(0,0)"></text></g></g></g><g model-id="1b2e9140-df56-4412-b271-8cf569aa09de"><path stroke="black" stroke-dasharray="none" d="M 326 280 444 280"></path><path fill="black" stroke="black" d="" transform="translate(326,280) scale(1,1) rotate(0)"></path><path fill="black" stroke="black" d="M 8 0 L 0 4 L 8 8 z" transform="translate(452,284) scale(1,1) rotate(-180)"></path><g><g label-idx="0" cursor="move" transform="translate(385, 280)"><rect fill="white" rx="3" ry="3" x="0" y="0" width="0" height="0"></rect><text text-anchor="middle" font-size="14pt" font-family="OpenSansCondensedLight" y="0.8em" display="none" xml:space="preserve" transform="translate(0,0)"></text></g></g></g><g model-id="4455ac00-0587-4919-b248-6d47b431e8ec"><path stroke="black" stroke-dasharray="none" d="M 568 278 686 278"></path><path fill="black" stroke="black" d="" transform="translate(568,278) scale(1,1) rotate(0)"></path><path fill="black" stroke="black" d="M 8 0 L 0 4 L 8 8 z" transform="translate(694,282) scale(1,1) rotate(-180)"></path><g><g label-idx="0" cursor="move" transform="translate(627, 278)"><rect fill="white" rx="3" ry="3" x="0" y="0" width="0" height="0"></rect><text text-anchor="middle" font-size="14pt" font-family="OpenSansCondensedLight" y="0.8em" display="none" xml:space="preserve" transform="translate(0,0)"></text></g></g></g></g><defs></defs></svg>